<svg width="3844" height="2400" viewBox="0 0 3844 2400" fill="none" xmlns="http://www.w3.org/2000/svg">
<rect width="3844" height="2400" fill="#296782"/>
<g clip-path="url(#clip0)">
<path d="M2882.12 918.237V918.237C2838.08 918.237 2802.38 957.85 2802.38 1006.71V1068.8H2821.47L2832.53 1045.79L2829.77 1068.8H2952.52L2962.57 1047.89L2960.06 1068.8H2973.88V1020.05C2973.88 963.821 2932.8 918.237 2882.12 918.237Z" fill="#2F2E41"/>
<path d="M2807.22 1205.27L2793.97 1256.03L2917.59 1251.61L2915.38 1209.68C2915.38 1209.68 2822.67 1185.41 2807.22 1205.27Z" fill="#FFB9B9"/>
<path d="M2688.01 1408.31L2727.75 1496.58L2765.28 1450.24L2734.37 1388.45L2688.01 1408.31Z" fill="#FFB9B9"/>
<path d="M2787.35 1732.73L2791.76 1834.25H2840.33L2833.71 1732.73H2787.35Z" fill="#FFB9B9"/>
<path d="M2729.96 1315.62L2752.03 1388.44L2785.14 1741.56C2785.14 1741.56 2816.05 1750.39 2838.12 1739.35L2842.54 1690.8L2851.37 1412.72C2851.37 1412.72 2893.31 1390.65 2888.89 1359.75C2884.48 1328.86 2873.44 1286.93 2873.44 1286.93L2729.96 1315.62Z" fill="#2F2E41"/>
<path d="M2798.39 1809.97H2785.14C2785.14 1809.97 2747.62 1849.7 2734.37 1854.11C2721.13 1858.53 2652.7 1896.04 2707.88 1902.67C2763.07 1909.29 2798.39 1880.6 2798.39 1880.6C2798.39 1880.6 2816.05 1891.63 2840.33 1882.8C2864.61 1873.97 2851.37 1847.49 2851.37 1847.49C2851.37 1847.49 2839.04 1807.13 2838.58 1807.45C2838.12 1807.77 2824.88 1827.63 2798.39 1809.97Z" fill="#2F2E41"/>
<path d="M2866.82 1055.2C2894.86 1055.2 2917.59 1032.47 2917.59 1004.44C2917.59 976.402 2894.86 953.676 2866.82 953.676C2838.78 953.676 2816.05 976.402 2816.05 1004.44C2816.05 1032.47 2838.78 1055.2 2866.82 1055.2Z" fill="#FFB9B9"/>
<path d="M2941.87 1070.64L2918.52 1090.11L2915.38 1092.71L2913.18 1119.2H2827.08C2827.08 1119.2 2838.83 1109.02 2849.73 1098.5C2849.95 1098.25 2850.2 1097.99 2850.46 1097.75C2851.94 1096.31 2853.27 1094.99 2854.46 1093.79C2855.1 1093.13 2855.72 1092.51 2856.27 1091.94C2857.17 1090.99 2858.06 1090.09 2858.94 1089.18C2858.95 1089.17 2858.96 1089.16 2858.96 1089.14C2861.22 1086.77 2863.34 1084.28 2865.32 1081.68L2865.34 1081.66C2865.87 1080.95 2866.36 1080.23 2866.82 1079.47C2873.44 1068.44 2857.99 1046.37 2857.99 1046.37L2906.55 1022.09C2908.25 1046.01 2928.5 1061.99 2937.55 1068C2940.2 1069.74 2941.87 1070.64 2941.87 1070.64Z" fill="#FFB9B9"/>
<path d="M3061.08 1441.41C3027.96 1450.24 3025.76 1384.03 3025.76 1384.03L2980.56 1293.67C2971.01 1274.57 2964.45 1254.13 2961.09 1233.04L2950.7 1167.75L2947.55 1171.52V1171.55L2941.87 1174.37L2907.39 1119.2L2897.72 1103.75V1086.09L2930.84 1070.64H2944.08C2944.08 1070.64 2944.37 1070.6 2944.87 1070.56C2950.97 1069.92 2990.61 1067.27 2992.64 1105.95C2993.44 1121.14 2993.37 1133.72 2992.96 1143.59C2991.7 1170.9 2994.3 1198.24 3000.66 1224.83C3003 1234.41 3005.55 1242.74 3008.1 1247.2C3016.93 1262.65 3047.83 1384.03 3047.83 1384.03C3047.83 1384.03 3094.19 1432.58 3061.08 1441.41Z" fill="#FFB9B9"/>
<path d="M2857.99 1094.92L2849.62 1110.17L2844.68 1119.2L2820.46 1163.34C2820.46 1163.34 2813.6 1168.94 2802.47 1176.18C2783.97 1188.21 2753.64 1204.72 2723.33 1207.47C2674.77 1211.89 2721.13 1055.2 2721.13 1055.2C2721.13 1055.2 2736.58 993.4 2758.65 1000.02C2780.73 1006.64 2763.07 1028.71 2747.62 1070.64C2732.16 1112.58 2745.41 1158.92 2745.41 1158.92C2745.41 1158.92 2791.76 1130.23 2816.05 1108.16C2828.7 1096.66 2839.56 1093.55 2847.04 1093.22H2847.06C2849.54 1093.08 2852.03 1093.28 2854.46 1093.79C2855.67 1094.04 2856.86 1094.42 2857.99 1094.92V1094.92Z" fill="#FFB9B9"/>
<path d="M2865.32 1081.68C2865.23 1081.92 2864.19 1083.89 2856.27 1091.94C2859.5 1088.72 2862.52 1085.29 2865.32 1081.68V1081.68Z" fill="#D0CDE1"/>
<path d="M2949.6 1168.85L2947.55 1171.55L2915.38 1227.34C2915.38 1227.34 2873.44 1211.89 2842.54 1207.48C2834.05 1206.01 2825.31 1207.11 2817.45 1210.64C2809.59 1214.16 2802.96 1219.96 2798.41 1227.27L2807.22 1192.03L2802.47 1176.18C2801.92 1174.33 2801.28 1172.27 2800.6 1169.96C2793.97 1147.89 2818.26 1123.61 2818.26 1123.61L2847.04 1093.22H2847.06C2849.54 1093.08 2852.03 1093.28 2854.46 1093.79C2853.27 1094.99 2851.94 1096.31 2850.46 1097.75C2850.2 1097.99 2849.95 1098.25 2849.73 1098.5C2841.28 1107.12 2845.67 1109.53 2849.62 1110.17C2850.93 1110.37 2852.25 1110.44 2853.57 1110.37C2862.78 1111.69 2882.93 1103.62 2897.72 1096.86C2907.79 1092.27 2915.38 1088.3 2915.38 1088.3L2934.65 1070.64L2937.55 1068C2940.2 1069.74 2941.87 1070.64 2941.87 1070.64H2944.08C2944.08 1070.64 2944.37 1070.6 2944.88 1070.56L2934.82 1078.01C2929.82 1081.73 2925.82 1086.63 2923.2 1092.28C2920.57 1097.93 2919.41 1104.15 2919.8 1110.37L2949.6 1168.85Z" fill="#E4B2B2"/>
<path d="M2829.29 1231.75L2797.02 1244.35C2797.02 1244.35 2621.79 1176.58 2595.3 1231.75C2568.81 1286.93 2688.01 1419.34 2688.01 1419.34L2740.99 1395.07L2718.92 1328.86C2718.92 1328.86 2846.95 1437 2899.93 1377.41C2952.91 1317.82 2917.59 1233.57 2917.59 1233.57C2917.59 1233.57 2884.48 1207.47 2829.29 1231.75Z" fill="#2F2E41"/>
<path d="M2736.58 1472.31L2716.71 1487.76C2716.71 1487.76 2734.37 1558.38 2727.75 1569.42C2721.13 1580.45 2707.88 1611.35 2732.16 1609.14C2756.45 1606.93 2782.94 1569.42 2785.14 1556.17C2787.35 1542.93 2802.8 1503.21 2802.8 1503.21C2802.8 1503.21 2829.29 1441.41 2809.42 1439.2C2789.56 1437 2757.91 1435.52 2757.91 1435.52L2736.58 1472.31Z" fill="#2F2E41"/>
<path d="M2904.79 942.61C2900.95 937.458 2895.98 933.26 2890.26 930.34C2884.53 927.42 2878.21 925.858 2871.79 925.774H2870.22C2840.04 925.774 2815.57 953.083 2815.57 986.769V986.769H2825.68L2827.32 974.339L2829.71 986.769H2889.7L2894.72 976.253L2893.47 986.769H2905.27C2910.78 1014.11 2902.86 1041.45 2881.53 1068.8H2901.64L2911.69 1047.76L2909.17 1068.8H2947.5L2955.03 1020.42C2955.03 984.193 2933.98 953.472 2904.79 942.61Z" fill="#2F2E41"/>
<path d="M2711.96 767.064C2812.47 767.064 2893.95 685.603 2893.95 585.116C2893.95 484.629 2812.47 403.168 2711.96 403.168C2611.45 403.168 2529.97 484.629 2529.97 585.116C2529.97 685.603 2611.45 767.064 2711.96 767.064Z" fill="#F9A620"/>
<path d="M2264.07 1434C2260.71 1460.77 2257.95 1486.54 2255.7 1511.12H2328.81C2331.47 1485.28 2334.81 1459.58 2338.82 1434H2264.07Z" fill="#3F3D56"/>
<path d="M2323.87 1706.28C2322.3 1680.7 2321.67 1654.99 2321.97 1629.16H2247.85C2246.65 1658.71 2246.18 1684.64 2246.09 1706.28H2323.87Z" fill="#3F3D56"/>
<path d="M2450.3 1023.22C2511.25 860.874 2570.96 751.723 2570.96 751.723L2508.78 714.737C2444.03 812.35 2395.1 917.863 2358.15 1023.22H2450.3Z" fill="#3F3D56"/>
<path d="M2253.91 1531.58C2251.62 1559.07 2249.96 1584.89 2248.78 1608.7H2322.36C2323.07 1582.99 2324.57 1557.28 2326.86 1531.58H2253.91Z" fill="#3F3D56"/>
<path d="M2278.48 1336.42C2273.99 1362.8 2270.1 1388.56 2266.73 1413.54H2342.14C2346.52 1387.56 2351.46 1361.86 2356.96 1336.42H2278.48Z" fill="#3F3D56"/>
<path d="M2351.12 1043.68C2342.45 1069.46 2334.46 1095.17 2327.16 1120.8H2415.94C2424.71 1094.1 2433.7 1068.33 2442.72 1043.68H2351.12Z" fill="#3F3D56"/>
<path d="M2297.44 1238.84C2291.71 1264.97 2286.59 1290.68 2282.07 1315.96H2361.48C2367.41 1289.82 2373.79 1264.11 2380.62 1238.84H2297.44Z" fill="#3F3D56"/>
<path d="M2246.12 1726.74C2246.36 1759.97 2247.46 1778.67 2247.46 1778.67L2246.67 1793.63H2333.26C2329.79 1771.52 2327.15 1749.22 2325.33 1726.74H2246.12Z" fill="#3F3D56"/>
<path d="M2321.44 1141.26C2314.33 1167.2 2307.87 1192.91 2302.04 1218.38H2386.23C2393.61 1192.01 2401.3 1166.31 2409.32 1141.26H2321.44Z" fill="#3F3D56"/>
<path d="M2941.95 822.439C2911.13 758.034 2880.13 709.995 2849.91 674.596L2834.13 698.835L2835.48 658.571C2825.11 647.607 2813.98 637.398 2802.16 628.022L2780.6 661.147L2782.17 613.78C2769.34 605.485 2755.6 598.7 2741.21 593.561L2725.26 618.059L2726.23 589.048C2671.2 575.242 2625.99 594.153 2599.79 610.3L2584.06 607.954L2611.04 596.69C2608.58 581.614 2604.39 566.873 2598.54 552.76L2551.66 545.767L2588.13 530.536C2581.04 517.222 2573.01 504.432 2564.09 492.265L2524.24 486.32L2550.93 475.175C2521.55 439.074 2479.89 399.924 2422.08 358C2422.08 358 2417.81 395.342 2415.43 447.408L2454.57 487.446L2414.35 477.047C2413.93 493.038 2413.75 509.873 2413.95 527.049L2442.82 556.576L2414.42 549.233C2414.84 562.367 2415.5 575.569 2416.48 588.622C2391.89 582.682 2366.23 582.828 2341.71 589.048L2342.68 618.059L2326.73 593.561C2312.34 598.7 2298.6 605.485 2285.77 613.78L2287.34 661.147L2265.78 628.022C2253.96 637.398 2242.83 647.607 2232.47 658.572L2233.81 698.835L2218.03 674.596C2187.81 709.995 2156.81 758.034 2125.99 822.439C2125.99 822.439 2163.5 819.907 2215.16 812.856L2247.48 767.136L2244.51 808.563C2260.32 806.092 2276.91 803.231 2293.77 799.938L2317.61 766.22L2315.51 795.472C2339.03 790.389 2362.62 784.435 2384.91 777.499L2400.91 792.38L2372.28 786.413C2365.78 800.237 2360.9 814.765 2357.74 829.71L2392.45 861.99L2353.75 853.921C2352.07 868.911 2351.46 884.002 2351.93 899.079L2381.43 926.518L2353.11 920.614C2356.91 966.997 2369.13 1022.85 2393.08 1090.11C2393.08 1090.11 2417.73 1061.73 2449.15 1020.14L2439.52 964.983L2466.8 996.302C2476.19 983.353 2485.87 969.572 2495.42 955.295L2488.32 914.619L2507.58 936.734C2526.93 906.534 2545.03 874.856 2558.35 844.683C2575.58 867.156 2594.04 888.661 2613.63 909.101L2628.39 883.757L2629.07 925.043C2641.14 937.267 2653.24 948.983 2664.9 959.934L2685.8 924.04L2686.72 980.023C2725.41 1014.96 2754.96 1038.19 2754.96 1038.19C2765.83 967.627 2767.31 910.479 2762.31 864.209L2735.61 875.336L2759.42 842.836C2757.05 827.94 2753.61 813.233 2749.13 798.828L2712.64 814.033L2729.99 790.351C2737.45 792.148 2744.93 793.855 2752.43 795.472L2750.33 766.22L2774.17 799.938C2791.03 803.231 2807.62 806.091 2823.43 808.563L2820.46 767.136L2852.79 812.856C2904.44 819.907 2941.95 822.439 2941.95 822.439Z" fill="#45841E"/>
<path d="M2134.52 1386.63C2136.89 1405.53 2138.84 1423.72 2140.43 1441.07H2088.82C2086.94 1422.83 2084.59 1404.69 2081.76 1386.63H2134.52Z" fill="#3F3D56"/>
<path d="M2092.31 1578.83C2093.42 1560.77 2093.86 1542.63 2093.65 1524.39H2145.97C2146.82 1545.25 2147.15 1563.56 2147.21 1578.83H2092.31Z" fill="#3F3D56"/>
<path d="M2003.06 1096.67C1960.04 982.074 1917.89 905.027 1917.89 905.027L1961.78 878.919C2007.49 947.822 2042.03 1022.3 2068.11 1096.67H2003.06Z" fill="#3F3D56"/>
<path d="M2141.7 1455.51C2143.31 1474.92 2144.48 1493.15 2145.32 1509.95H2093.38C2092.88 1491.8 2091.82 1473.66 2090.2 1455.51H2141.7Z" fill="#3F3D56"/>
<path d="M2124.35 1317.75C2127.52 1336.38 2130.27 1354.56 2132.64 1372.19H2079.41C2076.32 1353.86 2072.83 1335.71 2068.95 1317.75H2124.35Z" fill="#3F3D56"/>
<path d="M2073.07 1111.11C2079.19 1129.31 2084.83 1147.46 2089.98 1165.55H2027.32C2021.12 1146.7 2014.78 1128.51 2008.41 1111.11H2073.07Z" fill="#3F3D56"/>
<path d="M2110.96 1248.87C2115.01 1267.32 2118.62 1285.47 2121.82 1303.31H2065.76C2061.57 1284.86 2057.07 1266.71 2052.25 1248.87H2110.96Z" fill="#3F3D56"/>
<path d="M2147.19 1593.27C2147.02 1616.73 2146.25 1629.93 2146.25 1629.93L2146.8 1640.49H2085.68C2088.13 1624.89 2089.99 1609.15 2091.28 1593.27H2147.19Z" fill="#3F3D56"/>
<path d="M2094.03 1179.99C2099.04 1198.31 2103.6 1216.45 2107.72 1234.43H2048.29C2043.08 1215.82 2037.65 1197.67 2031.99 1179.99H2094.03Z" fill="#3F3D56"/>
<path d="M1656.02 954.944C1677.77 909.481 1699.65 875.572 1720.98 850.584L1732.12 867.694L1731.18 839.273C1738.49 831.533 1746.35 824.327 1754.69 817.709L1769.91 841.091L1768.8 807.655C1777.86 801.8 1787.56 797.011 1797.72 793.383L1808.97 810.676L1808.29 790.197C1847.13 780.452 1879.05 793.801 1897.54 805.199L1908.64 803.542L1889.6 795.591C1891.34 784.949 1894.3 774.544 1898.42 764.582L1931.52 759.646L1905.77 748.895C1910.78 739.497 1916.45 730.468 1922.74 721.879L1950.87 717.683L1932.03 709.816C1952.77 684.333 1982.18 656.698 2022.98 627.104C2022.98 627.104 2026 653.464 2027.68 690.216L2000.05 718.478L2028.44 711.137C2028.74 722.425 2028.86 734.309 2028.72 746.433L2008.34 767.276L2028.39 762.092C2028.1 771.363 2027.63 780.682 2026.94 789.896C2044.29 785.703 2062.41 785.807 2079.71 790.197L2079.03 810.676L2090.29 793.383C2100.45 797.011 2110.15 801.8 2119.21 807.655L2118.09 841.091L2133.31 817.708C2141.66 824.327 2149.52 831.533 2156.83 839.272L2155.88 867.694L2167.02 850.584C2188.35 875.572 2210.23 909.481 2231.99 954.944C2231.99 954.944 2205.51 953.156 2169.05 948.179L2146.23 915.906L2148.33 945.149C2137.17 943.404 2125.46 941.385 2113.55 939.061L2096.72 915.26L2098.21 935.908C2081.61 932.32 2064.95 928.118 2049.22 923.222L2037.93 933.726L2058.13 929.513C2062.72 939.271 2066.17 949.527 2068.4 960.076L2043.9 982.862L2071.22 977.167C2072.41 987.748 2072.84 998.4 2072.5 1009.04L2051.68 1028.41L2071.67 1024.24C2068.99 1056.98 2060.36 1096.41 2043.46 1143.89C2043.46 1143.89 2026.06 1123.85 2003.88 1094.5L2010.68 1055.56L1991.42 1077.67C1984.79 1068.53 1977.96 1058.8 1971.21 1048.72L1976.23 1020.01L1962.63 1035.62C1949.07 1014.89 1937.09 993.171 1926.79 970.646C1914.63 986.509 1901.6 1001.69 1887.77 1016.12L1877.35 998.227L1876.87 1027.37C1868.35 1036 1859.82 1044.27 1851.58 1052L1836.83 1026.66L1836.18 1066.18C1808.87 1090.84 1788.01 1107.24 1788.01 1107.24C1780.34 1057.43 1779.29 1017.09 1782.82 984.429L1801.67 992.283L1784.86 969.342C1786.54 958.827 1788.96 948.446 1792.12 938.277L1817.88 949.01L1805.63 932.293C1800.37 933.562 1795.09 934.767 1789.8 935.908L1791.28 915.26L1774.45 939.061C1762.55 941.386 1750.83 943.404 1739.68 945.149L1741.78 915.906L1718.96 948.179C1682.5 953.156 1656.02 954.944 1656.02 954.944Z" fill="#45841E"/>
<path d="M1529.03 1826.76C1691.94 1826.76 1824.01 1814.23 1824.01 1798.77C1824.01 1783.31 1691.94 1770.78 1529.03 1770.78C1366.11 1770.78 1234.04 1783.31 1234.04 1798.77C1234.04 1814.23 1366.11 1826.76 1529.03 1826.76Z" fill="#3F3D56"/>
<path d="M2238.99 1826.76C2401.9 1826.76 2533.97 1814.23 2533.97 1798.77C2533.97 1783.31 2401.9 1770.78 2238.99 1770.78C2076.07 1770.78 1944 1783.31 1944 1798.77C1944 1814.23 2076.07 1826.76 2238.99 1826.76Z" fill="#3F3D56"/>
<path d="M2462.97 1513.85C2462.97 1513.85 2484.27 1661.71 2382.02 1749.12C2315.84 1805.69 2221.49 1814.94 2144.05 1775.13C2115.29 1760.36 2084.61 1737.91 2055.32 1704.01C2044.25 1691.18 2034.06 1677.62 2024.8 1663.43C2011.35 1642.78 1999.5 1621.15 1989.34 1598.71C1982.94 1584.73 1976.83 1569.77 1971 1553.84C1969.88 1550.78 1968.84 1547.78 1967.84 1544.8C1914.74 1387.03 2018.02 1341 2112.81 1329.96C2132.7 1327.73 2152.71 1326.72 2172.73 1326.94C2196.23 1327.06 2219.7 1328.71 2242.99 1331.9C2242.99 1331.9 2244.93 1331.92 2248.43 1332.06C2266.49 1332.9 2284.48 1334.9 2302.28 1338.04C2375.52 1350.9 2487.61 1390.72 2462.97 1513.85Z" fill="#8B89A9"/>
<path d="M1811.01 1553.84C1764.33 1681.94 1697.12 1744.72 1637.96 1775.13C1560.52 1814.94 1466.17 1805.69 1399.99 1749.12C1393.65 1743.71 1387.64 1737.92 1381.99 1731.79C1370.4 1719.24 1360.33 1705.38 1351.98 1690.48C1341.41 1671.52 1333.29 1651.31 1327.8 1630.32C1321.76 1607.29 1318.3 1583.66 1317.46 1559.88C1316.73 1544.52 1317.26 1529.12 1319.04 1513.85C1295.98 1398.58 1392.73 1356.33 1465.27 1340.86C1486.24 1336.42 1507.52 1333.55 1528.93 1332.28C1535.35 1331.92 1539.03 1331.9 1539.03 1331.9C1577.18 1326.75 1615.77 1325.61 1654.16 1328.48C1754.33 1336.56 1874.31 1380.15 1811.01 1553.84Z" fill="#8B89A9"/>
<path opacity="0.2" d="M1528.93 1332.28L1327.8 1630.32C1321.76 1607.29 1318.3 1583.67 1317.46 1559.88L1465.27 1340.86C1486.24 1336.42 1507.52 1333.55 1528.93 1332.28V1332.28Z" fill="white"/>
<path opacity="0.2" d="M1654.16 1328.48L1381.99 1731.79C1370.4 1719.24 1360.33 1705.38 1351.98 1690.48L1597.16 1327.16C1616.17 1326.57 1635.2 1327.01 1654.16 1328.48V1328.48Z" fill="white"/>
<path opacity="0.2" d="M2172.73 1326.94L1989.34 1598.71C1982.94 1584.73 1976.83 1569.77 1971 1553.84C1969.88 1550.78 1968.84 1547.78 1967.84 1544.8L2112.81 1329.96C2132.7 1327.73 2152.72 1326.72 2172.73 1326.94V1326.94Z" fill="white"/>
<path opacity="0.2" d="M2302.28 1338.04L2055.32 1704.01C2044.25 1691.18 2034.06 1677.62 2024.8 1663.43L2248.43 1332.06C2266.49 1332.9 2284.48 1334.9 2302.28 1338.04V1338.04Z" fill="white"/>
<path d="M2510.97 1499.85H2465.2C2485.46 1333.82 2242.99 1331.9 2242.99 1331.9C2204.55 1326.72 2165.67 1325.6 2126.99 1328.56V1327.9H1653.02V1328.4C1615 1325.64 1576.8 1326.81 1539.02 1331.9C1539.02 1331.9 1296.55 1333.82 1316.81 1499.85H1273.04V1543.84H1317.21C1316.77 1591.63 1326.26 1686.09 1399.99 1749.12C1466.17 1805.69 1560.52 1814.94 1637.96 1775.13C1697.12 1744.72 1764.33 1681.94 1811.01 1553.84C1827 1509.95 1831.29 1474.37 1827.15 1445.57C1869.69 1443.43 1912.32 1443.43 1954.86 1445.57C1950.72 1474.37 1955.01 1509.95 1971 1553.84C2017.68 1681.94 2084.89 1744.72 2144.05 1775.13C2221.49 1814.94 2315.84 1805.69 2382.02 1749.12C2455.75 1686.09 2465.24 1591.63 2464.8 1543.84H2510.97V1499.85ZM1789.93 1554.66C1745.51 1676.56 1680.72 1733.59 1625.14 1759.9C1557.52 1791.91 1476.95 1783.01 1418.91 1735.85C1348.76 1678.82 1339.42 1591.19 1339.68 1546.52C1339.8 1528.76 1339 1511.05 1338.3 1493.31C1332.76 1353.93 1541.94 1352.3 1541.94 1352.3C1541.94 1352.3 1882.95 1299.43 1789.93 1554.66V1554.66ZM1956.7 1435.56C1912.97 1432.17 1869.04 1432.17 1825.31 1435.56C1814.34 1386.6 1777.36 1359.01 1733.44 1343.9H2048.57C2004.65 1359.01 1967.67 1386.6 1956.7 1435.56H1956.7ZM2445.88 1492.68C2445.16 1510.57 2444.36 1528.46 2444.48 1546.36C2444.76 1591.45 2435.32 1679.9 2364.52 1737.42C2305.96 1785.03 2224.69 1794.03 2156.47 1761.76C2100.35 1735.23 2034.92 1677.68 1990.06 1554.58C1896.21 1296.99 2240.35 1350.36 2240.35 1350.36C2240.35 1350.36 2451.45 1352 2445.88 1492.68Z" fill="#3F3D56"/>
<path d="M1577.81 1783.26C1577.58 1782.89 1572.24 1773.97 1570.39 1755.46C1568.69 1738.48 1569.78 1709.85 1584.63 1669.92C1612.76 1594.27 1578.15 1533.23 1577.79 1532.62L1579.5 1531.63C1586.17 1544.38 1590.98 1558.02 1593.8 1572.13C1600.77 1604.98 1598.23 1639.14 1586.48 1670.61C1558.4 1746.13 1579.28 1781.88 1579.49 1782.23L1577.81 1783.26Z" fill="#3F3D56"/>
<path d="M1566.81 1528.18C1573.89 1528.18 1579.64 1522.44 1579.64 1515.35C1579.64 1508.27 1573.89 1502.52 1566.81 1502.52C1559.72 1502.52 1553.98 1508.27 1553.98 1515.35C1553.98 1522.44 1559.72 1528.18 1566.81 1528.18Z" fill="#3F3D56"/>
<path d="M1607.27 1575.54C1614.35 1575.54 1620.1 1569.8 1620.1 1562.71C1620.1 1555.63 1614.35 1549.89 1607.27 1549.89C1600.18 1549.89 1594.44 1555.63 1594.44 1562.71C1594.44 1569.8 1600.18 1575.54 1607.27 1575.54Z" fill="#3F3D56"/>
<path d="M1579.64 1607.11C1586.72 1607.11 1592.47 1601.37 1592.47 1594.29C1592.47 1587.2 1586.72 1581.46 1579.64 1581.46C1572.55 1581.46 1566.81 1587.2 1566.81 1594.29C1566.81 1601.37 1572.55 1607.11 1579.64 1607.11Z" fill="white"/>
<path d="M1613.19 1633.75C1620.28 1633.75 1626.02 1628.01 1626.02 1620.93C1626.02 1613.84 1620.28 1608.1 1613.19 1608.1C1606.1 1608.1 1600.36 1613.84 1600.36 1620.93C1600.36 1628.01 1606.1 1633.75 1613.19 1633.75Z" fill="white"/>
<path d="M1569.77 1675.19C1576.85 1675.19 1582.6 1669.45 1582.6 1662.37C1582.6 1655.28 1576.85 1649.54 1569.77 1649.54C1562.68 1649.54 1556.94 1655.28 1556.94 1662.37C1556.94 1669.45 1562.68 1675.19 1569.77 1675.19Z" fill="#3F3D56"/>
<path d="M1585.56 1783.73C1585.56 1783.73 1572.73 1752.16 1611.22 1728.48L1585.56 1783.73Z" fill="#3F3D56"/>
<path d="M1569.78 1783.16C1569.78 1783.16 1563.94 1749.58 1518.75 1749.87L1569.78 1783.16Z" fill="#3F3D56"/>
<path d="M1447.67 1040.27C1447.64 1042.33 1447.12 1044.36 1446.13 1046.17C1445.14 1047.99 1443.73 1049.54 1442.01 1050.68L1441.53 1050.98H1227.94L1228.8 1048.36C1228.94 1047.9 1244.58 1002.54 1313.8 1011.29C1320.32 1009.05 1384.03 988.26 1422.17 1011.63C1439.09 1021.99 1447.67 1031.63 1447.67 1040.27Z" fill="#F1F1F1"/>
<path d="M1843.65 1194.22C1843.62 1196.29 1843.09 1198.31 1842.11 1200.13C1841.12 1201.94 1839.71 1203.49 1837.99 1204.64L1837.51 1204.94H1623.92L1624.78 1202.32C1624.92 1201.86 1640.56 1156.49 1709.78 1165.25C1716.3 1163.01 1780.01 1142.22 1818.15 1165.59C1835.07 1175.95 1843.65 1185.58 1843.65 1194.22Z" fill="#F1F1F1"/>
<path d="M1933.64 574.399C1933.62 576.465 1933.09 578.493 1932.1 580.308C1931.12 582.123 1929.7 583.671 1927.98 584.816L1927.5 585.116H1713.92L1714.78 582.497C1714.92 582.037 1730.55 536.67 1799.77 545.428C1806.29 543.188 1870.01 522.394 1908.14 545.767C1925.06 556.124 1933.64 565.762 1933.64 574.399Z" fill="#F1F1F1"/>
<path d="M827.915 1605.65L846.189 1662.2C846.189 1662.2 829.656 1715.26 837.487 1774.42C845.319 1833.58 840.968 1835.32 840.968 1835.32C840.968 1835.32 762.72 1830.81 770.551 1854.3C778.382 1877.79 854.89 1864.03 854.89 1864.03C854.89 1864.03 869.584 1860.07 876.545 1818.31C883.506 1776.56 901.008 1696.13 901.008 1696.13L884.551 1620.2L827.915 1605.65Z" fill="#FFB8B8"/>
<path d="M834.006 1489.95C834.006 1489.95 800.94 1502.13 800.94 1535.18C800.94 1568.24 813.123 1613.48 820.954 1616.09C828.785 1618.7 880.995 1654.37 890.566 1629.14C900.138 1603.91 834.006 1489.95 834.006 1489.95Z" fill="#D0CDE1"/>
<path d="M1110.72 1881.43L1180.33 1878.81L1233.41 1870.99L1217.75 1923.18L1088.96 1926.66L1110.72 1881.43Z" fill="#FFB8B8"/>
<path d="M1210.78 1888.38C1210.78 1888.38 1209.91 1869.25 1202.08 1870.12C1194.25 1870.99 1199.47 1863.16 1206.43 1861.42C1213.39 1859.68 1233.41 1850.98 1233.41 1850.98L1312.59 1856.2C1312.59 1856.2 1363.93 1901.43 1343.05 1925.79C1322.16 1950.15 1268.21 1928.4 1268.21 1928.4L1209.91 1929.27C1209.91 1929.27 1190.77 1897.95 1210.78 1888.38Z" fill="#2F2E41"/>
<path d="M1242.11 1821.4L1267.34 1939.71L1319.55 1929.27L1289.97 1781.38L1258.64 1764.85L1242.11 1821.4Z" fill="#FFB8B8"/>
<path d="M941.906 1806.61C941.906 1806.61 795.72 1872.73 857.501 1939.71C857.501 1939.71 857.501 1971.03 922.762 1964.94C988.024 1958.85 1114.2 1947.54 1120.29 1951.02C1126.38 1954.5 1145.52 1882.3 1128.99 1878.82C1112.46 1875.34 1092.44 1870.99 1092.44 1870.99C1092.44 1870.99 1109.85 1868.38 1109.85 1853.59C1109.85 1853.59 1159.44 1850.11 1174.24 1818.79C1189.03 1787.47 1202.95 1763.98 1202.95 1763.98L1236.89 1850.98C1236.89 1850.98 1276.05 1778.77 1305.63 1810.96C1305.63 1810.96 1272.56 1603.04 1247.33 1583.9C1222.1 1564.76 1204.69 1558.67 1181.2 1576.07C1157.7 1593.47 1135.95 1637.84 1135.95 1637.84L941.906 1806.61Z" fill="#2F2E41"/>
<path d="M1290.84 1904.04C1284.75 1908.63 1278.94 1913.57 1273.43 1918.83C1266.47 1925.79 1256.9 1922.31 1256.03 1918.83C1255.16 1915.35 1239.5 1921.44 1237.76 1946.67C1236.02 1971.9 1225.58 1994.52 1253.42 2002.35C1281.27 2010.18 1280.4 2032.8 1280.4 2032.8C1302.43 2043.36 1327.71 2044.93 1350.88 2037.15C1390.04 2024.1 1376.11 2010.18 1376.11 2010.18L1323.9 1924.05C1323.9 1924.05 1309.98 1897.95 1290.84 1904.04Z" fill="#2F2E41"/>
<path d="M1146.39 1472.55C1146.39 1472.55 1229.93 1501.26 1238.63 1507.35C1247.33 1513.44 1286.49 1542.14 1267.34 1556.93C1248.2 1571.72 1232.54 1581.29 1195.12 1569.98C1157.7 1558.67 1115.94 1523.88 1115.94 1523.88L1146.39 1472.55Z" fill="#FFB8B8"/>
<path d="M1062.86 1434.27C1062.86 1434.27 1095.92 1428.18 1119.42 1441.23C1142.91 1454.28 1162.92 1480.38 1162.92 1480.38C1162.92 1480.38 1141.17 1526.48 1125.51 1533.44C1109.85 1540.4 1081.13 1505.61 1081.13 1505.61L1062.86 1434.27Z" fill="#D0CDE1"/>
<path d="M910.58 1409.04C910.58 1409.04 911.45 1442.97 907.97 1446.45C904.489 1449.93 949.737 1552.58 999.336 1507.35C1048.93 1462.11 1010.65 1443.84 1010.65 1443.84C1010.65 1443.84 992.375 1409.91 993.245 1406.43C994.115 1402.95 912.321 1406.43 912.321 1406.43L910.58 1409.04Z" fill="#FFB8B8"/>
<path opacity="0.1" d="M910.58 1409.04C910.58 1409.04 911.45 1442.97 907.97 1446.45C904.489 1449.93 949.737 1552.58 999.336 1507.35C1048.93 1462.11 1010.65 1443.84 1010.65 1443.84C1010.65 1443.84 992.375 1409.91 993.245 1406.43C994.115 1402.95 912.321 1406.43 912.321 1406.43L910.58 1409.04Z" fill="black"/>
<path d="M924.502 1474.29C924.502 1474.29 957.568 1496.91 971.491 1491.69C985.413 1486.47 1002.82 1463.85 1004.56 1462.11C1006.3 1460.37 1095.05 1638.71 1095.05 1638.71C1095.05 1638.71 1082 1703.96 1047.19 1723.09C1012.39 1742.23 1012.82 1757.46 1008.47 1770.51C1004.12 1783.56 947.997 1729.18 947.997 1729.18L912.32 1577.81V1485.6L924.502 1474.29Z" fill="#D0CDE1"/>
<path d="M910.145 1433.83C910.145 1433.83 899.268 1431.66 887.956 1441.23C876.644 1450.8 823.565 1486.47 826.175 1489.95C828.786 1493.43 852.28 1543.01 857.501 1563.02C862.722 1583.03 870.553 1585.64 870.553 1585.64C870.553 1585.64 888.826 1598.69 886.216 1608.26C883.605 1617.83 872.293 1748.32 887.956 1777.03C903.619 1805.74 901.008 1830.97 896.658 1837.93C892.307 1844.89 938.425 1817.92 938.425 1817.92C938.425 1817.92 1007.17 1762.24 1012.39 1745.71C1015.76 1734.35 1018.09 1722.7 1019.35 1710.91C1019.35 1710.91 974.972 1535.18 961.049 1525.61C947.127 1516.05 910.145 1433.83 910.145 1433.83Z" fill="#10551F"/>
<path d="M1005.74 1434.52C1005.74 1434.52 1027.18 1421.22 1031.53 1424.7C1035.88 1428.18 1076.78 1428.18 1077.65 1431.66C1078.52 1435.14 1080.26 1518.65 1109.85 1540.4C1139.43 1562.15 1120.29 1605.65 1120.29 1605.65L1142.04 1640.45C1142.04 1640.45 1023.7 1754.4 1031.53 1715.26C1031.97 1713.09 1031.53 1712.65 1031.53 1712.65C1031.53 1712.65 985.413 1515.18 991.504 1504.74C997.596 1494.3 1008.66 1446.95 1005.74 1434.52Z" fill="#10551F"/>
<path d="M1188.16 1514.31L1069.82 1555.19C1069.82 1555.19 952.348 1583.03 970.621 1615.22C988.894 1647.41 1066.34 1592.6 1066.34 1592.6L1223.93 1574.95C1223.93 1574.95 1286.49 1522.13 1188.16 1514.31Z" fill="#FFB8B8"/>
<path d="M957.568 1441.23C993.131 1441.23 1021.96 1412.41 1021.96 1376.85C1021.96 1341.3 993.131 1312.48 957.568 1312.48C922.006 1312.48 893.177 1341.3 893.177 1376.85C893.177 1412.41 922.006 1441.23 957.568 1441.23Z" fill="#FFB8B8"/>
<path d="M906.289 1312.87L894.378 1308.54C894.378 1308.54 919.283 1283.64 953.934 1285.81L944.188 1276.07C944.188 1276.07 968.01 1267.41 989.666 1290.14C1001.05 1302.09 1014.22 1316.14 1022.43 1331.96H1035.19L1029.87 1342.61L1048.5 1353.25L1029.37 1351.34C1031.19 1360.53 1030.56 1370.04 1027.57 1378.91L1023.23 1390.82C1023.23 1390.82 1005.91 1356.18 1005.91 1351.85V1362.67C1005.91 1362.67 993.998 1352.93 993.998 1346.43L987.501 1354.01L984.252 1342.1L944.188 1354.01L950.685 1344.27L925.78 1347.52L935.526 1335.61C935.526 1335.61 907.372 1349.68 906.289 1361.59C905.206 1373.5 891.13 1388.65 891.13 1388.65L884.633 1377.83C884.633 1377.83 874.887 1329.11 906.289 1312.87Z" fill="#2F2E41"/>
<path d="M1014.78 1380.35C1014.78 1380.35 1016.9 1395.03 1006.74 1403.72C1003.5 1406.44 999.52 1408.14 995.311 1408.6C991.101 1409.06 986.85 1408.26 983.097 1406.3C979.73 1404.54 976.736 1402.14 974.281 1399.24C973.183 1397.96 972.17 1396.62 971.25 1395.21C969.914 1393.15 968.736 1391.01 967.727 1388.78C967.091 1387.39 966.484 1385.9 965.905 1384.32C965.794 1384.01 965.69 1383.72 965.591 1383.42C960.316 1367.75 970.576 1363.17 979.994 1362.08C981.97 1361.85 983.958 1361.75 985.946 1361.78C988.281 1361.79 990.613 1361.95 992.926 1362.27C992.926 1362.27 993.119 1362.27 993.466 1362.29C995.261 1362.37 997.048 1362.57 998.817 1362.88C1006.09 1364.16 1017.23 1368.11 1014.78 1380.35Z" fill="#C4C4C4"/>
<path d="M950.01 1384.32C945.373 1397.04 938.695 1403.28 932.818 1406.3C929.065 1408.26 924.814 1409.06 920.605 1408.6C916.395 1408.14 912.418 1406.44 909.177 1403.72C908.547 1403.18 907.95 1402.61 907.389 1402C906.237 1400.75 905.236 1399.37 904.407 1397.89C903.357 1396.01 902.55 1394 902.004 1391.92C901.405 1389.63 901.061 1387.28 900.977 1384.92C900.905 1383.39 900.957 1381.86 901.134 1380.35C898.843 1368.89 908.456 1364.7 915.662 1363.16C917.746 1362.72 919.86 1362.43 921.986 1362.31C922.624 1362.27 922.989 1362.27 922.989 1362.27C926.78 1361.76 930.613 1361.64 934.428 1361.93C944.38 1362.73 956.299 1367.06 950.01 1384.32Z" fill="#C4C4C4"/>
<path opacity="0.2" d="M921.986 1362.31L902.004 1391.92C901.405 1389.63 901.06 1387.28 900.977 1384.92L915.662 1363.16C917.746 1362.72 919.86 1362.43 921.986 1362.31V1362.31Z" fill="white"/>
<path opacity="0.2" d="M934.428 1361.93L907.389 1402C906.237 1400.75 905.236 1399.37 904.407 1397.89L928.765 1361.8C930.654 1361.74 932.544 1361.78 934.428 1361.93V1361.93Z" fill="white"/>
<path opacity="0.2" d="M985.946 1361.78L967.727 1388.78C967.091 1387.39 966.484 1385.9 965.905 1384.32C965.794 1384.01 965.69 1383.72 965.591 1383.42L979.993 1362.08C981.97 1361.85 983.958 1361.75 985.946 1361.78V1361.78Z" fill="white"/>
<path opacity="0.2" d="M998.817 1362.88L974.281 1399.24C973.182 1397.96 972.17 1396.62 971.25 1395.21L993.466 1362.29C995.261 1362.37 997.048 1362.57 998.817 1362.88V1362.88Z" fill="white"/>
<path d="M1019.55 1378.96H1015C1017.01 1362.46 992.926 1362.27 992.926 1362.27C989.107 1361.76 985.245 1361.64 981.402 1361.94V1361.87H934.314V1361.92C930.537 1361.65 926.742 1361.76 922.989 1362.27C922.989 1362.27 898.901 1362.46 900.913 1378.96H896.564V1383.33H900.953C900.909 1388.07 901.851 1397.46 909.177 1403.72C912.418 1406.44 916.395 1408.14 920.605 1408.6C924.814 1409.06 929.065 1408.26 932.818 1406.3C938.695 1403.28 945.373 1397.05 950.01 1384.32C951.419 1380.92 951.969 1377.23 951.614 1373.56C955.841 1373.35 960.075 1373.35 964.301 1373.56C963.946 1377.23 964.497 1380.92 965.905 1384.32C970.542 1397.05 977.22 1403.28 983.097 1406.3C986.85 1408.26 991.101 1409.06 995.311 1408.6C999.52 1408.14 1003.5 1406.44 1006.74 1403.72C1014.06 1397.46 1015.01 1388.07 1014.96 1383.33H1019.55V1378.96ZM947.916 1384.4C943.503 1396.51 937.066 1402.18 931.545 1404.79C928.251 1406.36 924.581 1406.97 920.956 1406.55C917.332 1406.12 913.9 1404.69 911.056 1402.4C904.087 1396.74 903.159 1388.03 903.185 1383.59C903.197 1381.83 903.117 1380.07 903.047 1378.31C902.497 1364.46 923.279 1364.3 923.279 1364.3C923.279 1364.3 957.157 1359.04 947.916 1384.4ZM964.484 1372.57C960.14 1372.23 955.776 1372.23 951.431 1372.57C950.341 1367.7 946.667 1364.96 942.304 1363.46H973.611C969.248 1364.96 965.574 1367.7 964.484 1372.57V1372.57ZM1013.08 1378.24C1013.01 1380.02 1012.93 1381.8 1012.94 1383.58C1012.97 1388.05 1012.03 1396.84 1005 1402.56C1002.13 1404.86 998.67 1406.32 995.014 1406.74C991.357 1407.17 987.654 1406.56 984.331 1404.97C978.756 1402.34 972.255 1396.62 967.799 1384.39C958.474 1358.8 992.664 1364.1 992.664 1364.1C992.664 1364.1 1013.64 1364.27 1013.08 1378.24V1378.24Z" fill="#3F3D56"/>
</g>
<defs>
<clipPath id="clip0">
<rect width="2303" height="1684" fill="white" transform="translate(770 358)"/>
</clipPath>
</defs>
</svg>
