<svg width="863" height="204" viewBox="0 0 863 204" fill="none" xmlns="http://www.w3.org/2000/svg">
<path d="M78.7744 0L114.24 0.0706049L97.1671 17.7693L78.9715 35.5949L78.7744 0Z" fill="#61CE70"/>
<path d="M114.384 35.5854L78.9716 35.5949L95.9338 17.876L114.037 0.282601L114.384 35.5854Z" fill="#FF7E00"/>
<path d="M0.93689 167.622L36.4022 167.693L19.3296 185.391L1.13398 203.217L0.93689 167.622Z" fill="#61CE70"/>
<path d="M36.5466 203.207L1.13397 203.217L18.0962 185.498L36.1993 167.905L36.5466 203.207Z" fill="#FF7E00"/>
<rect x="1" y="4" width="35" height="119" fill="#61CE70"/>
<rect x="78.7506" y="119.64" width="35.4653" height="83.4479" fill="#61CE70"/>
<path d="M36.006 123L36.006 87.3121L114.162 87.1575L114.233 122.83L36.006 123Z" fill="#61CE70"/>
<path d="M189.015 73.7812C192.703 73.7812 196.328 74.25 199.89 75.1875C203.515 76.0625 206.421 77.25 208.609 78.75V95.7188C205.921 94.1562 203.265 92.8125 200.64 91.6875C198.015 90.5 194.921 89.9062 191.359 89.9062C189.296 89.9062 187.515 90.2188 186.015 90.8438C184.515 91.4688 183.765 92.5 183.765 93.9375C183.765 95.5 184.671 96.6875 186.484 97.5C188.296 98.25 190.515 99.125 193.14 100.125L199.89 102.656C204.453 104.406 207.671 106.781 209.546 109.781C211.484 112.781 212.453 115.781 212.453 118.781C212.453 122.781 211.296 126.344 208.984 129.469C206.671 132.531 203.546 134.969 199.609 136.781C195.671 138.531 191.265 139.406 186.39 139.406C182.64 139.406 178.921 138.75 175.234 137.438C171.546 136.125 168.328 134.5 165.578 132.562V115.594C168.578 117.844 171.796 119.688 175.234 121.125C178.734 122.562 182.234 123.281 185.734 123.281C187.921 123.281 189.671 123.031 190.984 122.531C192.359 121.969 193.046 121.031 193.046 119.719C193.046 118.781 192.546 117.969 191.546 117.281C190.546 116.594 189.203 116 187.515 115.5L178.609 112.688C175.109 111.562 172.39 110.031 170.453 108.094C168.515 106.156 167.171 104 166.421 101.625C165.671 99.1875 165.296 96.7188 165.296 94.2188C165.296 89.7812 166.421 86.0625 168.671 83.0625C170.921 80 173.859 77.6875 177.484 76.125C181.109 74.5625 184.953 73.7812 189.015 73.7812ZM237.953 90.1875V96.375C239.453 94.3125 241.046 92.5312 242.734 91.0312C244.421 89.5312 246.859 88.7812 250.046 88.7812C253.234 88.7812 256.078 89.5312 258.578 91.0312C261.078 92.4688 263.046 94.625 264.484 97.5C265.984 95 267.953 92.9375 270.39 91.3125C272.89 89.625 275.671 88.7812 278.734 88.7812C283.609 88.7812 287.578 90.4375 290.64 93.75C293.765 97.0625 295.328 101.969 295.328 108.469V138H279.203L279.109 111C279.109 108.625 278.484 106.969 277.234 106.031C276.046 105.031 274.64 104.531 273.015 104.531C271.578 104.531 270.328 104.969 269.265 105.844C268.265 106.719 267.39 107.719 266.64 108.844V138H250.515L250.421 111C250.421 108.625 249.796 106.969 248.546 106.031C247.359 105.031 245.953 104.531 244.328 104.531C242.89 104.531 241.671 105 240.671 105.938C239.734 106.812 238.828 107.875 237.953 109.125V138H221.828V90.1875H237.953ZM326.265 88.7812C328.765 88.7812 331.203 89.3438 333.578 90.4688C336.015 91.5312 338.015 92.9062 339.578 94.5938V90.1875H355.703V138H339.578V130.031C338.39 132.656 336.578 134.875 334.14 136.688C331.703 138.5 328.765 139.406 325.328 139.406C321.765 139.406 318.421 138.5 315.296 136.688C312.171 134.875 309.609 132.094 307.609 128.344C305.671 124.531 304.703 119.75 304.703 114C304.703 108.625 305.671 104.062 307.609 100.312C309.609 96.5625 312.234 93.7188 315.484 91.7812C318.796 89.7812 322.39 88.7812 326.265 88.7812ZM329.64 104.531C327.328 104.531 325.39 105.469 323.828 107.344C322.328 109.219 321.578 111.438 321.578 114C321.578 116.562 322.359 118.719 323.921 120.469C325.484 122.219 327.546 123.094 330.109 123.094C331.484 123.094 332.89 122.75 334.328 122.062C335.765 121.312 336.984 120.219 337.984 118.781C339.046 117.281 339.578 115.375 339.578 113.062V108.469C338.203 107.344 336.64 106.406 334.89 105.656C333.203 104.906 331.453 104.531 329.64 104.531ZM401.453 107.906C400.515 107.406 399.515 107.031 398.453 106.781C397.453 106.469 396.265 106.312 394.89 106.312C392.703 106.312 390.765 106.969 389.078 108.281C387.39 109.594 386.015 111.312 384.953 113.438V138H368.828V90.1875H384.953V98.7188C386.453 96.1562 388.109 93.9375 389.921 92.0625C391.796 90.1875 394.234 89.25 397.234 89.25C398.859 89.25 400.265 89.5312 401.453 90.0938V107.906ZM431.265 76.125V90.1875H443.828V102.844H431.265V116.25C431.265 118.562 431.734 120.406 432.671 121.781C433.671 123.094 435.046 123.75 436.796 123.75C439.546 123.75 442.078 123.062 444.39 121.688V134.25C443.39 135.625 441.796 136.844 439.609 137.906C437.484 138.906 434.859 139.406 431.734 139.406C428.734 139.406 425.984 138.719 423.484 137.344C420.984 135.969 418.953 134 417.39 131.438C415.89 128.875 415.14 125.781 415.14 122.156V102.844H407.078V93C410.14 92.1875 413.14 90.4375 416.078 87.75C419.078 85 421.265 81.125 422.64 76.125H431.265ZM544.609 75.1875L515.546 138.938H506.734L477.671 75.1875H498.109L511.14 109.688L524.171 75.1875H544.609ZM564.578 63.375C566.39 63.375 568.046 63.8125 569.546 64.6875C571.109 65.5625 572.359 66.75 573.296 68.25C574.234 69.6875 574.703 71.3125 574.703 73.125C574.703 74.875 574.234 76.5 573.296 78C572.359 79.5 571.109 80.6875 569.546 81.5625C568.046 82.4375 566.39 82.875 564.578 82.875C561.89 82.875 559.546 81.9375 557.546 80.0625C555.546 78.125 554.546 75.8125 554.546 73.125C554.546 70.375 555.546 68.0625 557.546 66.1875C559.546 64.3125 561.89 63.375 564.578 63.375ZM573.671 90.1875V138H557.546V103.312H549.765V90.1875H573.671ZM603.015 70.5V138H586.89V70.5H603.015ZM632.265 70.5V138H616.14V70.5H632.265ZM663.672 88.7812C666.172 88.7812 668.609 89.3438 670.984 90.4688C673.422 91.5312 675.422 92.9062 676.984 94.5938V90.1875H693.109V138H676.984V130.031C675.797 132.656 673.984 134.875 671.547 136.688C669.109 138.5 666.172 139.406 662.734 139.406C659.172 139.406 655.828 138.5 652.703 136.688C649.578 134.875 647.015 132.094 645.015 128.344C643.078 124.531 642.109 119.75 642.109 114C642.109 108.625 643.078 104.062 645.015 100.312C647.015 96.5625 649.64 93.7188 652.89 91.7812C656.203 89.7812 659.797 88.7812 663.672 88.7812ZM667.047 104.531C664.734 104.531 662.797 105.469 661.234 107.344C659.734 109.219 658.984 111.438 658.984 114C658.984 116.562 659.765 118.719 661.328 120.469C662.89 122.219 664.953 123.094 667.515 123.094C668.89 123.094 670.297 122.75 671.734 122.062C673.172 121.312 674.39 120.219 675.39 118.781C676.453 117.281 676.984 115.375 676.984 113.062V108.469C675.609 107.344 674.047 106.406 672.297 105.656C670.609 104.906 668.859 104.531 667.047 104.531ZM724.515 88.7812C727.015 88.7812 729.453 89.3438 731.828 90.4688C734.265 91.5312 736.265 92.9062 737.828 94.5938V90.1875H753.953V136.594C753.953 141.656 752.703 146.062 750.203 149.812C747.703 153.625 744.39 156.594 740.265 158.719C736.14 160.844 731.609 161.906 726.672 161.906C722.672 161.906 719.203 161.344 716.265 160.219C713.328 159.156 710.39 157.656 707.453 155.719V141.469C709.453 142.594 711.265 143.594 712.89 144.469C714.578 145.344 716.39 146.031 718.328 146.531C720.265 147.094 722.547 147.375 725.172 147.375C729.047 147.375 732.109 146.281 734.359 144.094C736.672 141.906 737.828 139.438 737.828 136.688V130.031C736.64 132.656 734.828 134.875 732.39 136.688C729.953 138.5 727.015 139.406 723.578 139.406C720.015 139.406 716.672 138.5 713.547 136.688C710.422 134.875 707.859 132.094 705.859 128.344C703.922 124.531 702.953 119.75 702.953 114C702.953 108.625 703.922 104.062 705.859 100.312C707.859 96.5625 710.484 93.7188 713.734 91.7812C717.047 89.7812 720.64 88.7812 724.515 88.7812ZM727.89 104.531C725.578 104.531 723.64 105.469 722.078 107.344C720.578 109.219 719.828 111.438 719.828 114C719.828 116.562 720.609 118.719 722.172 120.469C723.734 122.219 725.797 123.094 728.359 123.094C729.734 123.094 731.14 122.75 732.578 122.062C734.015 121.312 735.234 120.219 736.234 118.781C737.297 117.281 737.828 115.375 737.828 113.062V108.469C736.453 107.344 734.89 106.406 733.14 105.656C731.453 104.906 729.703 104.531 727.89 104.531ZM789.203 88.7812C793.703 88.7812 797.703 89.7812 801.203 91.7812C804.703 93.7812 807.422 96.5938 809.359 100.219C811.359 103.781 812.359 108.031 812.359 112.969V118.5H779.828C780.515 120.812 781.89 122.531 783.953 123.656C786.015 124.781 788.39 125.344 791.078 125.344C794.703 125.344 797.828 124.844 800.453 123.844C803.14 122.781 805.14 121.875 806.453 121.125V134.906C804.828 135.906 802.578 136.906 799.703 137.906C796.89 138.906 793.703 139.406 790.14 139.406C786.765 139.406 783.484 138.844 780.297 137.719C777.172 136.594 774.359 134.969 771.859 132.844C769.359 130.719 767.39 128.156 765.953 125.156C764.515 122.094 763.797 118.656 763.797 114.844C763.797 110.094 764.89 105.75 767.078 101.812C769.328 97.875 772.359 94.7188 776.172 92.3438C780.047 89.9688 784.39 88.7812 789.203 88.7812ZM788.734 102.094C786.672 102.094 784.89 102.656 783.39 103.781C781.89 104.844 780.797 106.5 780.109 108.75H797.078C797.078 106.5 796.203 104.844 794.453 103.781C792.765 102.656 790.859 102.094 788.734 102.094Z" fill="#FF7E00"/>
<path d="M189.015 73.7812C192.703 73.7812 196.328 74.25 199.89 75.1875C203.515 76.0625 206.421 77.25 208.609 78.75V95.7188C205.921 94.1562 203.265 92.8125 200.64 91.6875C198.015 90.5 194.921 89.9062 191.359 89.9062C189.296 89.9062 187.515 90.2188 186.015 90.8438C184.515 91.4688 183.765 92.5 183.765 93.9375C183.765 95.5 184.671 96.6875 186.484 97.5C188.296 98.25 190.515 99.125 193.14 100.125L199.89 102.656C204.453 104.406 207.671 106.781 209.546 109.781C211.484 112.781 212.453 115.781 212.453 118.781C212.453 122.781 211.296 126.344 208.984 129.469C206.671 132.531 203.546 134.969 199.609 136.781C195.671 138.531 191.265 139.406 186.39 139.406C182.64 139.406 178.921 138.75 175.234 137.438C171.546 136.125 168.328 134.5 165.578 132.562V115.594C168.578 117.844 171.796 119.688 175.234 121.125C178.734 122.562 182.234 123.281 185.734 123.281C187.921 123.281 189.671 123.031 190.984 122.531C192.359 121.969 193.046 121.031 193.046 119.719C193.046 118.781 192.546 117.969 191.546 117.281C190.546 116.594 189.203 116 187.515 115.5L178.609 112.688C175.109 111.562 172.39 110.031 170.453 108.094C168.515 106.156 167.171 104 166.421 101.625C165.671 99.1875 165.296 96.7188 165.296 94.2188C165.296 89.7812 166.421 86.0625 168.671 83.0625C170.921 80 173.859 77.6875 177.484 76.125C181.109 74.5625 184.953 73.7812 189.015 73.7812ZM237.953 90.1875V96.375C239.453 94.3125 241.046 92.5312 242.734 91.0312C244.421 89.5312 246.859 88.7812 250.046 88.7812C253.234 88.7812 256.078 89.5312 258.578 91.0312C261.078 92.4688 263.046 94.625 264.484 97.5C265.984 95 267.953 92.9375 270.39 91.3125C272.89 89.625 275.671 88.7812 278.734 88.7812C283.609 88.7812 287.578 90.4375 290.64 93.75C293.765 97.0625 295.328 101.969 295.328 108.469V138H279.203L279.109 111C279.109 108.625 278.484 106.969 277.234 106.031C276.046 105.031 274.64 104.531 273.015 104.531C271.578 104.531 270.328 104.969 269.265 105.844C268.265 106.719 267.39 107.719 266.64 108.844V138H250.515L250.421 111C250.421 108.625 249.796 106.969 248.546 106.031C247.359 105.031 245.953 104.531 244.328 104.531C242.89 104.531 241.671 105 240.671 105.938C239.734 106.812 238.828 107.875 237.953 109.125V138H221.828V90.1875H237.953ZM326.265 88.7812C328.765 88.7812 331.203 89.3438 333.578 90.4688C336.015 91.5312 338.015 92.9062 339.578 94.5938V90.1875H355.703V138H339.578V130.031C338.39 132.656 336.578 134.875 334.14 136.688C331.703 138.5 328.765 139.406 325.328 139.406C321.765 139.406 318.421 138.5 315.296 136.688C312.171 134.875 309.609 132.094 307.609 128.344C305.671 124.531 304.703 119.75 304.703 114C304.703 108.625 305.671 104.062 307.609 100.312C309.609 96.5625 312.234 93.7188 315.484 91.7812C318.796 89.7812 322.39 88.7812 326.265 88.7812ZM329.64 104.531C327.328 104.531 325.39 105.469 323.828 107.344C322.328 109.219 321.578 111.438 321.578 114C321.578 116.562 322.359 118.719 323.921 120.469C325.484 122.219 327.546 123.094 330.109 123.094C331.484 123.094 332.89 122.75 334.328 122.062C335.765 121.312 336.984 120.219 337.984 118.781C339.046 117.281 339.578 115.375 339.578 113.062V108.469C338.203 107.344 336.64 106.406 334.89 105.656C333.203 104.906 331.453 104.531 329.64 104.531ZM401.453 107.906C400.515 107.406 399.515 107.031 398.453 106.781C397.453 106.469 396.265 106.312 394.89 106.312C392.703 106.312 390.765 106.969 389.078 108.281C387.39 109.594 386.015 111.312 384.953 113.438V138H368.828V90.1875H384.953V98.7188C386.453 96.1562 388.109 93.9375 389.921 92.0625C391.796 90.1875 394.234 89.25 397.234 89.25C398.859 89.25 400.265 89.5312 401.453 90.0938V107.906ZM431.265 76.125V90.1875H443.828V102.844H431.265V116.25C431.265 118.562 431.734 120.406 432.671 121.781C433.671 123.094 435.046 123.75 436.796 123.75C439.546 123.75 442.078 123.062 444.39 121.688V134.25C443.39 135.625 441.796 136.844 439.609 137.906C437.484 138.906 434.859 139.406 431.734 139.406C428.734 139.406 425.984 138.719 423.484 137.344C420.984 135.969 418.953 134 417.39 131.438C415.89 128.875 415.14 125.781 415.14 122.156V102.844H407.078V93C410.14 92.1875 413.14 90.4375 416.078 87.75C419.078 85 421.265 81.125 422.64 76.125H431.265ZM544.609 75.1875L515.546 138.938H506.734L477.671 75.1875H498.109L511.14 109.688L524.171 75.1875H544.609ZM564.578 63.375C566.39 63.375 568.046 63.8125 569.546 64.6875C571.109 65.5625 572.359 66.75 573.296 68.25C574.234 69.6875 574.703 71.3125 574.703 73.125C574.703 74.875 574.234 76.5 573.296 78C572.359 79.5 571.109 80.6875 569.546 81.5625C568.046 82.4375 566.39 82.875 564.578 82.875C561.89 82.875 559.546 81.9375 557.546 80.0625C555.546 78.125 554.546 75.8125 554.546 73.125C554.546 70.375 555.546 68.0625 557.546 66.1875C559.546 64.3125 561.89 63.375 564.578 63.375ZM573.671 90.1875V138H557.546V103.312H549.765V90.1875H573.671ZM603.015 70.5V138H586.89V70.5H603.015ZM632.265 70.5V138H616.14V70.5H632.265ZM663.672 88.7812C666.172 88.7812 668.609 89.3438 670.984 90.4688C673.422 91.5312 675.422 92.9062 676.984 94.5938V90.1875H693.109V138H676.984V130.031C675.797 132.656 673.984 134.875 671.547 136.688C669.109 138.5 666.172 139.406 662.734 139.406C659.172 139.406 655.828 138.5 652.703 136.688C649.578 134.875 647.015 132.094 645.015 128.344C643.078 124.531 642.109 119.75 642.109 114C642.109 108.625 643.078 104.062 645.015 100.312C647.015 96.5625 649.64 93.7188 652.89 91.7812C656.203 89.7812 659.797 88.7812 663.672 88.7812ZM667.047 104.531C664.734 104.531 662.797 105.469 661.234 107.344C659.734 109.219 658.984 111.438 658.984 114C658.984 116.562 659.765 118.719 661.328 120.469C662.89 122.219 664.953 123.094 667.515 123.094C668.89 123.094 670.297 122.75 671.734 122.062C673.172 121.312 674.39 120.219 675.39 118.781C676.453 117.281 676.984 115.375 676.984 113.062V108.469C675.609 107.344 674.047 106.406 672.297 105.656C670.609 104.906 668.859 104.531 667.047 104.531ZM724.515 88.7812C727.015 88.7812 729.453 89.3438 731.828 90.4688C734.265 91.5312 736.265 92.9062 737.828 94.5938V90.1875H753.953V136.594C753.953 141.656 752.703 146.062 750.203 149.812C747.703 153.625 744.39 156.594 740.265 158.719C736.14 160.844 731.609 161.906 726.672 161.906C722.672 161.906 719.203 161.344 716.265 160.219C713.328 159.156 710.39 157.656 707.453 155.719V141.469C709.453 142.594 711.265 143.594 712.89 144.469C714.578 145.344 716.39 146.031 718.328 146.531C720.265 147.094 722.547 147.375 725.172 147.375C729.047 147.375 732.109 146.281 734.359 144.094C736.672 141.906 737.828 139.438 737.828 136.688V130.031C736.64 132.656 734.828 134.875 732.39 136.688C729.953 138.5 727.015 139.406 723.578 139.406C720.015 139.406 716.672 138.5 713.547 136.688C710.422 134.875 707.859 132.094 705.859 128.344C703.922 124.531 702.953 119.75 702.953 114C702.953 108.625 703.922 104.062 705.859 100.312C707.859 96.5625 710.484 93.7188 713.734 91.7812C717.047 89.7812 720.64 88.7812 724.515 88.7812ZM727.89 104.531C725.578 104.531 723.64 105.469 722.078 107.344C720.578 109.219 719.828 111.438 719.828 114C719.828 116.562 720.609 118.719 722.172 120.469C723.734 122.219 725.797 123.094 728.359 123.094C729.734 123.094 731.14 122.75 732.578 122.062C734.015 121.312 735.234 120.219 736.234 118.781C737.297 117.281 737.828 115.375 737.828 113.062V108.469C736.453 107.344 734.89 106.406 733.14 105.656C731.453 104.906 729.703 104.531 727.89 104.531ZM789.203 88.7812C793.703 88.7812 797.703 89.7812 801.203 91.7812C804.703 93.7812 807.422 96.5938 809.359 100.219C811.359 103.781 812.359 108.031 812.359 112.969V118.5H779.828C780.515 120.812 781.89 122.531 783.953 123.656C786.015 124.781 788.39 125.344 791.078 125.344C794.703 125.344 797.828 124.844 800.453 123.844C803.14 122.781 805.14 121.875 806.453 121.125V134.906C804.828 135.906 802.578 136.906 799.703 137.906C796.89 138.906 793.703 139.406 790.14 139.406C786.765 139.406 783.484 138.844 780.297 137.719C777.172 136.594 774.359 134.969 771.859 132.844C769.359 130.719 767.39 128.156 765.953 125.156C764.515 122.094 763.797 118.656 763.797 114.844C763.797 110.094 764.89 105.75 767.078 101.812C769.328 97.875 772.359 94.7188 776.172 92.3438C780.047 89.9688 784.39 88.7812 789.203 88.7812ZM788.734 102.094C786.672 102.094 784.89 102.656 783.39 103.781C781.89 104.844 780.797 106.5 780.109 108.75H797.078C797.078 106.5 796.203 104.844 794.453 103.781C792.765 102.656 790.859 102.094 788.734 102.094Z" fill="url(#paint0_linear)"/>
<defs>
<linearGradient id="paint0_linear" x1="488.125" y1="48" x2="488.125" y2="162.741" gradientUnits="userSpaceOnUse">
<stop offset="0.473958" stop-color="#FF7E00"/>
<stop offset="0.546875" stop-color="#D9911B" stop-opacity="0.49"/>
<stop offset="0.682292" stop-color="#BF9E2D" stop-opacity="0.601429"/>
<stop offset="0.9998" stop-color="#61CE70"/>
<stop offset="0.9999" stop-color="#B0A638"/>
<stop offset="1" stop-color="white" stop-opacity="0"/>
</linearGradient>
</defs>
</svg>
