<svg width="2660" height="792" viewBox="0 0 2660 792" fill="none" xmlns="http://www.w3.org/2000/svg">
<rect width="2660" height="792" fill="#296782"/>
<g clip-path="url(#clip0)">
<path d="M2221 31.1899H1886.14V246H2221V31.1899Z" fill="#E6E6E6"/>
<path d="M2211.42 58.1328H1895.72V233.292H2211.42V58.1328Z" fill="white"/>
<path d="M2220.86 31H1886V45.2494H2220.86V31Z" fill="#F9A620"/>
<path d="M2184.3 77.3003H2069.39V188.404H2184.3V77.3003Z" fill="#E6E6E6"/>
<path d="M1896.57 40.9259C1898.03 40.9259 1899.21 39.7435 1899.21 38.285C1899.21 36.8264 1898.03 35.644 1896.57 35.644C1895.12 35.644 1893.94 36.8264 1893.94 38.285C1893.94 39.7435 1895.12 40.9259 1896.57 40.9259Z" fill="white"/>
<path d="M1906.58 40.9259C1908.04 40.9259 1909.22 39.7435 1909.22 38.285C1909.22 36.8264 1908.04 35.644 1906.58 35.644C1905.12 35.644 1903.94 36.8264 1903.94 38.285C1903.94 39.7435 1905.12 40.9259 1906.58 40.9259Z" fill="white"/>
<path d="M1916.59 40.9259C1918.04 40.9259 1919.22 39.7435 1919.22 38.285C1919.22 36.8264 1918.04 35.644 1916.59 35.644C1915.13 35.644 1913.95 36.8264 1913.95 38.285C1913.95 39.7435 1915.13 40.9259 1916.59 40.9259Z" fill="white"/>
<path d="M1950.64 77.0723H1920V107.767H1950.64V77.0723Z" fill="#F9A620"/>
<path d="M1993.26 77.248H1962.61V107.943H1993.26V77.248Z" fill="#E6E6E6"/>
<path d="M1993.38 119.411H1962.73V221.545H1993.38V119.411Z" fill="#F9A620"/>
<path d="M1949.8 119.183H1919.16V171.439H1949.8V119.183Z" fill="#E6E6E6"/>
<path d="M2126.07 94.8496C2121.02 86.3108 2111.04 85.9131 2111.04 85.9131C2111.04 85.9131 2101.32 84.6674 2095.08 97.6716C2089.26 109.793 2081.23 121.495 2093.79 124.333L2096.05 117.266L2097.46 124.859C2099.24 124.988 2101.04 125.019 2102.83 124.951C2116.27 124.517 2129.06 125.079 2128.65 120.249C2128.1 113.826 2130.92 103.065 2126.07 94.8496Z" fill="#2F2E41"/>
<path d="M2091.63 175.931L2074.61 187.764C2074.61 187.764 2064.69 198.179 2071.78 198.179C2078.87 198.179 2081.7 189.184 2081.7 189.184L2103.44 179.717L2091.63 175.931Z" fill="#FFB8B8"/>
<path d="M2098.48 129.774C2098.48 129.774 2083.59 175.932 2088.32 178.298C2093.04 180.664 2103.44 182.085 2103.44 182.085L2098.48 129.774Z" fill="#2F2E41"/>
<path opacity="0.1" d="M2098.48 129.774C2098.48 129.774 2083.59 175.932 2088.32 178.298C2093.04 180.664 2103.44 182.085 2103.44 182.085L2098.48 129.774Z" fill="black"/>
<path d="M2145.28 188.004H2111.77L2135.58 175.932C2136.11 176.273 2136.61 176.646 2137.09 177.049C2140.62 180.026 2143.42 183.773 2145.28 188.004Z" fill="#2F2E41"/>
<path d="M2107.93 117.938C2114.72 117.938 2120.22 112.428 2120.22 105.63C2120.22 98.8324 2114.72 93.3218 2107.93 93.3218C2101.15 93.3218 2095.64 98.8324 2095.64 105.63C2095.64 112.428 2101.15 117.938 2107.93 117.938Z" fill="#FFB8B8"/>
<path d="M2107.7 115.809C2107.7 115.809 2110.53 124.803 2107.7 128.118C2104.86 131.432 2123.29 123.383 2123.29 123.383C2123.29 123.383 2116.68 113.916 2118.57 109.655L2107.7 115.809Z" fill="#FFB8B8"/>
<path d="M2134.92 156.905L2133.93 163.386C2133.93 163.386 2134.43 164.858 2135.04 167.003C2135.83 169.8 2136.81 173.742 2137.09 177.048C2137.38 180.4 2136.94 183.098 2134.87 183.268C2131.9 183.514 2130.36 185.318 2128.82 188.003H2094.63C2094.72 186.526 2094.83 184.992 2094.95 183.415C2095.02 182.468 2095.1 181.509 2095.19 180.537C2095.28 179.42 2098.63 158.434 2096.11 153.918C2090.92 144.592 2097.53 139.243 2097.53 139.243C2097.53 139.243 2098.48 132.141 2098.48 129.775C2098.48 127.919 2105.74 125.774 2108.88 124.932C2109.08 124.88 2109.26 124.827 2109.42 124.79C2109.97 124.648 2110.29 124.567 2110.29 124.567L2112.77 123.548C2112.77 123.548 2119.74 122.199 2120.22 121.252C2120.52 120.844 2120.94 120.542 2121.43 120.39C2122.42 119.964 2123.7 119.661 2124 119.358C2124.43 118.861 2124.82 118.329 2125.17 117.767C2126.07 116.726 2127.29 116.01 2128.64 115.73C2133.72 114.447 2141.01 116.989 2141.01 116.989L2138.46 133.677L2134.92 156.905Z" fill="#2F2E41"/>
<path d="M2149.76 146.58L2132.75 158.413C2132.75 158.413 2122.82 168.828 2129.91 168.828C2137 168.828 2139.83 159.835 2139.83 159.835L2161.57 150.368L2149.76 146.58Z" fill="#FFB8B8"/>
<path d="M2120.53 94.0267L2110.67 88.8545L2104.48 89.8145C2102.29 90.1553 2100.25 91.1483 2098.63 92.6645C2097.01 94.1808 2095.88 96.1503 2095.39 98.3172L2094.23 103.434L2101.25 103.163L2103.21 98.5841V103.088L2106.44 102.963L2108.32 95.6728L2109.5 103.433L2121 103.198L2120.53 94.0267Z" fill="#2F2E41"/>
<path d="M2137.71 117.939L2141.02 116.992C2141.02 116.992 2174.57 130.721 2173.63 142.556C2172.68 154.391 2174.1 154.389 2168.43 154.864C2162.76 155.339 2146.22 149.657 2146.69 148.71C2147.16 147.763 2150.47 143.028 2150.47 143.028L2137.71 133.087L2137.71 117.939Z" fill="#2F2E41"/>
<path d="M2120.22 107.525C2121.26 107.525 2122.11 106.677 2122.11 105.631C2122.11 104.585 2121.26 103.737 2120.22 103.737C2119.18 103.737 2118.33 104.585 2118.33 105.631C2118.33 106.677 2119.18 107.525 2120.22 107.525Z" fill="#FFB8B8"/>
<path d="M2184.3 206.262H2069.39V221.609H2184.3V206.262Z" fill="#E6E6E6"/>
<path d="M1949.8 182.971H1919.16V221.318H1949.8V182.971Z" fill="#E6E6E6"/>
<path d="M2036.95 77.4575H2006.31V171.439H2036.95V77.4575Z" fill="#E6E6E6"/>
<path d="M2036.83 183.064H2006.18V221.433H2036.83V183.064Z" fill="#E6E6E6"/>
</g>
<g clip-path="url(#clip1)">
<path d="M733 51.1899H398.143V266H733V51.1899Z" fill="#E6E6E6"/>
<path d="M723.425 78.1328H407.718V253.292H723.425V78.1328Z" fill="white"/>
<path d="M732.857 51H398V65.2494H732.857V51Z" fill="#F9A620"/>
<path d="M696.304 97.3003H581.387V208.404H696.304V97.3003Z" fill="#E6E6E6"/>
<path d="M408.571 60.9259C410.028 60.9259 411.208 59.7435 411.208 58.285C411.208 56.8264 410.028 55.644 408.571 55.644C407.115 55.644 405.935 56.8264 405.935 58.285C405.935 59.7435 407.115 60.9259 408.571 60.9259Z" fill="white"/>
<path d="M418.58 60.9259C420.036 60.9259 421.216 59.7435 421.216 58.285C421.216 56.8264 420.036 55.644 418.58 55.644C417.124 55.644 415.943 56.8264 415.943 58.285C415.943 59.7435 417.124 60.9259 418.58 60.9259Z" fill="white"/>
<path d="M428.588 60.9259C430.044 60.9259 431.225 59.7435 431.225 58.285C431.225 56.8264 430.044 55.644 428.588 55.644C427.132 55.644 425.951 56.8264 425.951 58.285C425.951 59.7435 427.132 60.9259 428.588 60.9259Z" fill="white"/>
<path d="M462.64 97.0723H431.996V127.767H462.64V97.0723Z" fill="#F9A620"/>
<path d="M505.255 97.248H474.611V127.943H505.255V97.248Z" fill="#E6E6E6"/>
<path d="M505.377 139.411H474.732V241.545H505.377V139.411Z" fill="#F9A620"/>
<path d="M461.804 139.183H431.16V191.439H461.804V139.183Z" fill="#E6E6E6"/>
<path d="M638.069 114.85C633.022 106.311 623.042 105.913 623.042 105.913C623.042 105.913 613.316 104.667 607.077 117.672C601.261 129.793 593.235 141.495 605.786 144.333L608.053 137.266L609.457 144.859C611.243 144.988 613.036 145.019 614.826 144.951C628.266 144.517 641.065 145.079 640.653 140.249C640.104 133.826 642.923 123.065 638.069 114.85Z" fill="#2F2E41"/>
<path d="M603.627 195.931L586.613 207.764C586.613 207.764 576.688 218.179 583.777 218.179C590.867 218.179 593.702 209.184 593.702 209.184L615.443 199.717L603.627 195.931Z" fill="#FFB8B8"/>
<path d="M610.48 149.774C610.48 149.774 595.592 195.932 600.318 198.298C605.044 200.664 615.442 202.085 615.442 202.085L610.48 149.774Z" fill="#2F2E41"/>
<path opacity="0.1" d="M610.48 149.774C610.48 149.774 595.592 195.932 600.318 198.298C605.044 200.664 615.442 202.085 615.442 202.085L610.48 149.774Z" fill="black"/>
<path d="M657.284 208.004H623.77L647.581 195.932C648.106 196.273 648.609 196.646 649.089 197.049C652.619 200.026 655.423 203.773 657.284 208.004Z" fill="#2F2E41"/>
<path d="M619.933 137.938C626.719 137.938 632.221 132.428 632.221 125.63C632.221 118.832 626.719 113.322 619.933 113.322C613.146 113.322 607.645 118.832 607.645 125.63C607.645 132.428 613.146 137.938 619.933 137.938Z" fill="#FFB8B8"/>
<path d="M619.696 135.809C619.696 135.809 622.532 144.803 619.696 148.118C616.861 151.432 635.293 143.383 635.293 143.383C635.293 143.383 628.677 133.916 630.567 129.655L619.696 135.809Z" fill="#FFB8B8"/>
<path d="M646.918 176.905L645.926 183.386C645.926 183.386 646.427 184.858 647.037 187.003C647.831 189.8 648.809 193.742 649.088 197.048C649.376 200.4 648.941 203.098 646.871 203.268C643.903 203.514 642.358 205.318 640.817 208.003H606.627C606.717 206.526 606.825 204.992 606.953 203.415C607.024 202.468 607.102 201.509 607.188 200.537C607.282 199.42 610.63 178.434 608.114 173.918C602.917 164.592 609.532 159.243 609.532 159.243C609.532 159.243 610.477 152.141 610.477 149.775C610.477 147.919 617.737 145.774 620.875 144.932C621.079 144.88 621.258 144.827 621.423 144.79C621.966 144.648 622.292 144.567 622.292 144.567L624.774 143.548C624.774 143.548 631.745 142.199 632.218 141.252C632.52 140.844 632.943 140.542 633.428 140.39C634.425 139.964 635.696 139.661 635.999 139.358C636.431 138.861 636.821 138.329 637.166 137.767C638.072 136.726 639.294 136.01 640.645 135.73C645.721 134.447 653.013 136.989 653.013 136.989L650.461 153.677L646.918 176.905Z" fill="#2F2E41"/>
<path d="M661.76 166.58L644.746 178.413C644.746 178.413 634.82 188.828 641.91 188.828C648.999 188.828 651.833 179.835 651.833 179.835L673.574 170.368L661.76 166.58Z" fill="#FFB8B8"/>
<path d="M632.53 114.027L622.669 108.854L616.484 109.814C614.292 110.155 612.253 111.148 610.632 112.665C609.011 114.181 607.882 116.15 607.393 118.317L606.235 123.434L613.249 123.163L615.208 118.584V123.088L618.444 122.963L620.322 115.673L621.496 123.433L633 123.198L632.53 114.027Z" fill="#2F2E41"/>
<path d="M649.708 137.939L653.016 136.992C653.016 136.992 686.573 150.721 685.627 162.556C684.682 174.391 686.1 174.389 680.429 174.864C674.757 175.339 658.217 169.657 658.686 168.71C659.156 167.763 662.467 163.028 662.467 163.028L649.706 153.087L649.708 137.939Z" fill="#2F2E41"/>
<path d="M632.221 127.525C633.265 127.525 634.111 126.677 634.111 125.631C634.111 124.585 633.265 123.737 632.221 123.737C631.177 123.737 630.33 124.585 630.33 125.631C630.33 126.677 631.177 127.525 632.221 127.525Z" fill="#FFB8B8"/>
<path d="M696.304 226.262H581.387V241.609H696.304V226.262Z" fill="#E6E6E6"/>
<path d="M461.804 202.971H431.16V241.318H461.804V202.971Z" fill="#E6E6E6"/>
<path d="M548.949 97.4575H518.305V191.439H548.949V97.4575Z" fill="#E6E6E6"/>
<path d="M548.828 203.064H518.184V241.433H548.828V203.064Z" fill="#E6E6E6"/>
</g>
<defs>
<clipPath id="clip0">
<rect width="335" height="215" fill="white" transform="translate(1886 31)"/>
</clipPath>
<clipPath id="clip1">
<rect width="335" height="215" fill="white" transform="translate(398 51)"/>
</clipPath>
</defs>
</svg>
