<svg width="2660" height="792" viewBox="0 0 2660 792" fill="none" xmlns="http://www.w3.org/2000/svg">
<rect width="2660" height="792" fill="#296782"/>
<g clip-path="url(#clip0)">
<path d="M2111.93 68.6545C2111.83 79.1951 2111.06 89.7187 2109.62 100.16C2109.57 100.527 2109.51 100.893 2109.46 101.26L2010.76 100.708C2010.47 100.344 2010.18 99.9757 2009.9 99.6027C2008.98 98.3685 2008.12 97.0992 2007.33 95.7862C2003.52 89.4603 2001.77 82.054 2003.52 76.944L2003.55 76.8646C2003.93 75.7457 2004.52 74.7123 2005.3 73.8238C2009.29 69.3365 2017.35 70.0845 2024.66 73.7065C2018.1 66.5253 2012.88 57.4637 2012.48 49.3752C2012.09 41.4857 2016.22 35.8497 2020.69 31.06C2020.84 30.9017 2020.98 30.7477 2021.13 30.5938C2021.2 30.5147 2021.28 30.4399 2021.35 30.3607C2024.84 26.7107 2028.91 23.1125 2034.8 23.5477C2041.26 24.026 2048.42 29.4377 2053.44 35.7438C2058.47 42.0455 2061.8 49.2042 2065.19 56.1909C2068.57 63.1731 2072.24 70.3338 2077.67 76.3018C2070.31 66.9895 2064.38 56.3942 2062.18 46.0895C2059.99 35.7848 2061.92 25.8878 2068.48 21.0346C2070.47 19.6067 2072.78 18.6766 2075.2 18.3222C2075.49 18.2752 2075.77 18.237 2076.07 18.2033C2082.14 17.5122 2089.39 19.6129 2095.56 24.6344C2102.35 30.1635 2107.07 38.3601 2109.41 46.1412C2111.75 53.9222 2112 61.4131 2111.93 68.6545Z" fill="#F2F2F2"/>
<path d="M2047.35 100.913L2045.46 100.902C2044.86 100.527 2044.26 100.157 2043.66 99.791C2043.28 99.5546 2042.9 99.327 2042.52 99.095C2036.26 95.2711 2029.96 91.6032 2023.63 88.0913C2017.29 84.5764 2010.93 81.2235 2004.53 78.0326C2004.36 77.9587 2004.22 77.8278 2004.14 77.6626C2004.06 77.4974 2004.03 77.3082 2004.08 77.1281C2004.08 77.1045 2004.09 77.0822 2004.11 77.062C2004.2 76.8945 2004.4 76.8248 2004.69 76.9679C2005.47 77.3614 2006.26 77.7548 2007.05 78.1571C2013.46 81.4027 2019.85 84.8103 2026.21 88.3798C2032.56 91.9478 2038.88 95.6733 2045.16 99.5563C2045.29 99.6366 2045.43 99.7214 2045.56 99.8017C2046.16 100.172 2046.75 100.542 2047.35 100.913Z" fill="white"/>
<path d="M2071.69 101.049L2070.52 101.042C2070.26 100.674 2070 100.305 2069.73 99.9368C2063.55 91.2633 2057.37 82.5898 2051.18 73.9163C2041.06 59.7165 2030.94 45.5167 2020.82 31.3169C2020.76 31.2405 2020.72 31.1531 2020.69 31.0597C2020.6 30.7453 2020.83 30.561 2021.13 30.5936C2021.25 30.6114 2021.37 30.6556 2021.48 30.7233C2021.59 30.791 2021.68 30.8806 2021.75 30.9861C2027.42 38.9493 2033.1 46.9096 2038.77 54.867C2048.84 68.9958 2058.91 83.1231 2068.98 97.2489C2069.62 98.1456 2070.26 99.0467 2070.9 99.9433C2071.16 100.312 2071.43 100.68 2071.69 101.049Z" fill="white"/>
<path d="M2097.69 94.2705C2097.63 96.2376 2097.5 98.1734 2097.33 100.091C2097.29 100.458 2097.26 100.825 2097.23 101.191L2096 101.185C2096.04 100.818 2096.08 100.451 2096.11 100.084C2096.37 97.3138 2096.55 94.5118 2096.58 91.6338C2096.61 83.6545 2095.83 75.6925 2094.26 67.8704C2092.58 59.448 2090.18 51.1875 2087.07 43.1823C2083.81 34.7393 2079.88 26.5711 2075.31 18.756C2075.22 18.6286 2075.19 18.475 2075.2 18.3221C2075.25 17.9731 2075.72 17.8696 2076.07 18.2032C2076.13 18.2686 2076.19 18.3433 2076.24 18.4252C2076.81 19.3966 2077.36 20.3709 2077.9 21.348C2082.3 29.2065 2086.07 37.4031 2089.16 45.8599C2092.11 53.8913 2094.35 62.1643 2095.86 70.5851C2097.28 78.3972 2097.89 86.3337 2097.69 94.2705Z" fill="white"/>
<path d="M2181.19 100.442H1912.85C1911.83 100.443 1910.85 100.849 1910.13 101.572C1909.41 102.295 1909 103.275 1909 104.297V286.145C1909 287.167 1909.41 288.147 1910.13 288.87C1910.85 289.593 1911.83 289.999 1912.85 290H2181.19C2181.75 290 2182.3 289.879 2182.8 289.646C2183.31 289.412 2183.76 289.072 2184.12 288.647C2184.15 288.614 2184.18 288.579 2184.21 288.541C2184.44 288.26 2184.62 287.945 2184.76 287.608C2184.95 287.145 2185.05 286.647 2185.05 286.145V104.297C2185.05 103.274 2184.64 102.294 2183.92 101.571C2183.19 100.848 2182.21 100.442 2181.19 100.442V100.442ZM2183.95 286.145C2183.95 286.683 2183.79 287.209 2183.49 287.657C2183.23 288.052 2182.87 288.374 2182.45 288.594C2182.06 288.796 2181.63 288.9 2181.19 288.899H1912.85C1912.12 288.899 1911.42 288.608 1910.91 288.092C1910.39 287.575 1910.1 286.875 1910.1 286.145V104.297C1910.1 103.567 1910.39 102.867 1910.91 102.35C1911.42 101.834 1912.12 101.544 1912.85 101.543H2181.19C2181.92 101.543 2182.62 101.833 2183.14 102.349C2183.66 102.866 2183.95 103.566 2183.95 104.297V286.145Z" fill="#3F3D56"/>
<path d="M2184.5 115.893H1909.55V116.995H2184.5V115.893Z" fill="#3F3D56"/>
<path d="M1918.92 112.013C1920.74 112.013 1922.22 110.533 1922.22 108.707C1922.22 106.881 1920.74 105.401 1918.92 105.401C1917.09 105.401 1915.61 106.881 1915.61 108.707C1915.61 110.533 1917.09 112.013 1918.92 112.013Z" fill="#3F3D56"/>
<path d="M1928.42 112.013C1930.25 112.013 1931.73 110.533 1931.73 108.707C1931.73 106.881 1930.25 105.401 1928.42 105.401C1926.6 105.401 1925.12 106.881 1925.12 108.707C1925.12 110.533 1926.6 112.013 1928.42 112.013Z" fill="#3F3D56"/>
<path d="M1937.93 112.013C1939.75 112.013 1941.23 110.533 1941.23 108.707C1941.23 106.881 1939.75 105.401 1937.93 105.401C1936.1 105.401 1934.62 106.881 1934.62 108.707C1934.62 110.533 1936.1 112.013 1937.93 112.013Z" fill="#3F3D56"/>
<path d="M2116.03 141.404H1978.1C1976.58 141.404 1975.12 140.798 1974.04 139.721C1972.96 138.643 1972.36 137.181 1972.36 135.657C1972.36 134.132 1972.96 132.67 1974.04 131.593C1975.12 130.515 1976.58 129.909 1978.1 129.909H2116.03C2117.55 129.909 2119.02 130.515 2120.09 131.593C2121.17 132.67 2121.78 134.132 2121.78 135.657C2121.78 137.181 2121.17 138.643 2120.09 139.721C2119.02 140.798 2117.55 141.404 2116.03 141.404V141.404ZM1978.1 130.793C1976.81 130.793 1975.58 131.306 1974.67 132.218C1973.75 133.13 1973.24 134.367 1973.24 135.657C1973.24 136.946 1973.75 138.183 1974.67 139.095C1975.58 140.007 1976.81 140.52 1978.1 140.52H2116.03C2117.32 140.52 2118.56 140.007 2119.47 139.095C2120.38 138.183 2120.89 136.946 2120.89 135.657C2120.89 134.367 2120.38 133.13 2119.47 132.218C2118.56 131.306 2117.32 130.793 2116.03 130.793H1978.1Z" fill="#3F3D56"/>
<path d="M1989.56 208.878H1936.51C1934.52 208.875 1932.61 208.083 1931.2 206.674C1929.79 205.265 1928.99 203.354 1928.99 201.362V176.604C1928.99 174.611 1929.79 172.701 1931.2 171.292C1932.61 169.883 1934.52 169.09 1936.51 169.088H1989.56C1991.55 169.09 1993.46 169.883 1994.87 171.292C1996.28 172.701 1997.07 174.611 1997.07 176.604V201.362C1997.07 203.354 1996.28 205.265 1994.87 206.674C1993.46 208.083 1991.55 208.875 1989.56 208.878V208.878Z" fill="#F9A620"/>
<path d="M2073.55 208.878H2020.5C2018.51 208.875 2016.6 208.083 2015.19 206.674C2013.78 205.265 2012.99 203.354 2012.99 201.362V176.604C2012.99 174.611 2013.78 172.701 2015.19 171.292C2016.6 169.883 2018.51 169.09 2020.5 169.088H2073.55C2075.54 169.09 2077.45 169.883 2078.86 171.292C2080.27 172.701 2081.06 174.611 2081.06 176.604V201.362C2081.06 203.354 2080.27 205.265 2078.86 206.674C2077.45 208.083 2075.54 208.875 2073.55 208.878V208.878Z" fill="#F9A620"/>
<path d="M2157.54 208.878H2104.49C2102.5 208.875 2100.59 208.083 2099.18 206.674C2097.77 205.265 2096.98 203.354 2096.98 201.362V176.604C2096.98 174.611 2097.77 172.701 2099.18 171.292C2100.59 169.883 2102.5 169.09 2104.49 169.088H2157.54C2159.53 169.09 2161.45 169.883 2162.85 171.292C2164.26 172.701 2165.06 174.611 2165.06 176.604V201.362C2165.06 203.354 2164.26 205.265 2162.85 206.674C2161.45 208.083 2159.53 208.875 2157.54 208.878V208.878Z" fill="#F9A620"/>
<path d="M1989.56 261.046H1936.51C1934.52 261.044 1932.61 260.251 1931.2 258.842C1929.79 257.433 1928.99 255.523 1928.99 253.53V228.772C1928.99 226.78 1929.79 224.869 1931.2 223.46C1932.61 222.051 1934.52 221.259 1936.51 221.256H1989.56C1991.55 221.259 1993.46 222.051 1994.87 223.46C1996.28 224.869 1997.07 226.78 1997.07 228.772V253.53C1997.07 255.523 1996.28 257.433 1994.87 258.842C1993.46 260.251 1991.55 261.044 1989.56 261.046V261.046Z" fill="#F9A620"/>
<path d="M2073.55 261.046H2020.5C2018.51 261.044 2016.6 260.251 2015.19 258.842C2013.78 257.433 2012.99 255.523 2012.99 253.53V228.772C2012.99 226.78 2013.78 224.869 2015.19 223.46C2016.6 222.051 2018.51 221.259 2020.5 221.256H2073.55C2075.54 221.259 2077.45 222.051 2078.86 223.46C2080.27 224.869 2081.06 226.78 2081.06 228.772V253.53C2081.06 255.523 2080.27 257.433 2078.86 258.842C2077.45 260.251 2075.54 261.044 2073.55 261.046V261.046Z" fill="#F9A620"/>
<path d="M2157.54 261.046H2104.49C2102.5 261.044 2100.59 260.251 2099.18 258.842C2097.77 257.433 2096.98 255.523 2096.98 253.53V228.772C2096.98 226.78 2097.77 224.869 2099.18 223.46C2100.59 222.051 2102.5 221.259 2104.49 221.256H2157.54C2159.53 221.259 2161.45 222.051 2162.85 223.46C2164.26 224.869 2165.06 226.78 2165.06 228.772V253.53C2165.06 255.523 2164.26 257.433 2162.85 258.842C2161.45 260.251 2159.53 261.044 2157.54 261.046V261.046Z" fill="#B77100"/>
<path d="M2217.17 142.561C2225.23 142.561 2231.76 136.029 2231.76 127.971C2231.76 119.914 2225.23 113.382 2217.17 113.382C2209.12 113.382 2202.58 119.914 2202.58 127.971C2202.58 136.029 2209.12 142.561 2217.17 142.561Z" fill="#2F2E41"/>
<path d="M2180.63 203.868C2180.3 203.254 2180.12 202.576 2180.09 201.882C2180.05 201.189 2180.17 200.496 2180.44 199.854C2180.7 199.211 2181.1 198.635 2181.61 198.164C2182.12 197.694 2182.73 197.341 2183.39 197.13L2201.88 158.022L2210.33 163.952L2189.5 200.53C2189.78 201.665 2189.64 202.863 2189.09 203.897C2188.55 204.932 2187.64 205.73 2186.55 206.142C2185.45 206.553 2184.25 206.549 2183.15 206.13C2182.06 205.711 2181.16 204.906 2180.63 203.868V203.868Z" fill="#FFB8B8"/>
<path d="M2196.47 163.214C2196.38 162.921 2196.35 162.613 2196.4 162.309C2196.44 162.006 2196.55 161.716 2196.71 161.458L2202.46 152.447C2203.1 151.018 2204.28 149.9 2205.74 149.339C2207.2 148.778 2208.82 148.82 2210.25 149.454C2211.69 150.089 2212.81 151.266 2213.37 152.726C2213.94 154.186 2213.9 155.811 2213.27 157.244L2210.37 167.568C2210.29 167.863 2210.15 168.136 2209.95 168.37C2209.75 168.603 2209.5 168.791 2209.23 168.921C2208.95 169.051 2208.65 169.12 2208.34 169.123C2208.04 169.125 2207.73 169.062 2207.45 168.937L2197.64 164.547C2197.36 164.422 2197.11 164.238 2196.91 164.008C2196.7 163.778 2196.55 163.508 2196.47 163.214V163.214Z" fill="#6C63FF"/>
<path d="M2242.98 207.745C2242.3 207.588 2241.67 207.284 2241.12 206.856C2240.58 206.428 2240.13 205.884 2239.82 205.265C2239.5 204.646 2239.33 203.965 2239.31 203.271C2239.28 202.577 2239.41 201.887 2239.69 201.248L2222.18 161.692L2232.2 159.169L2246.26 198.845C2247.3 199.376 2248.11 200.27 2248.53 201.358C2248.96 202.447 2248.97 203.654 2248.57 204.751C2248.17 205.848 2247.37 206.758 2246.34 207.31C2245.31 207.862 2244.12 208.017 2242.98 207.745V207.745Z" fill="#FFB8B8"/>
<path d="M2247.75 279.444L2242.66 281.299L2233.08 262.537L2240.6 259.8L2247.75 279.444Z" fill="#FFB8B8"/>
<path d="M2238.49 281.168L2248.31 277.592L2250.56 283.776L2234.56 289.604C2234.26 288.792 2234.13 287.93 2234.17 287.066C2234.21 286.203 2234.41 285.355 2234.78 284.572C2235.14 283.788 2235.66 283.085 2236.3 282.501C2236.93 281.917 2237.68 281.464 2238.49 281.168Z" fill="#2F2E41"/>
<path d="M2233.85 267.576L2214.45 233.622C2214.26 233.293 2214.16 232.921 2214.17 232.542C2214.17 232.164 2214.28 231.794 2214.47 231.469L2223.21 216.908C2223.41 216.562 2223.71 216.283 2224.07 216.101C2224.43 215.92 2224.84 215.845 2225.24 215.884C2225.64 215.922 2226.02 216.074 2226.34 216.321C2226.66 216.569 2226.9 216.901 2227.04 217.28L2243.55 263.024C2243.73 263.522 2243.72 264.07 2243.52 264.56C2243.32 265.05 2242.94 265.447 2242.46 265.672L2236.61 268.444C2236.33 268.578 2236.02 268.647 2235.71 268.647C2235.33 268.648 2234.96 268.549 2234.63 268.361C2234.31 268.173 2234.04 267.902 2233.85 267.576V267.576Z" fill="#2F2E41"/>
<path d="M2215.84 143.913C2221.84 143.913 2226.7 139.051 2226.7 133.054C2226.7 127.057 2221.84 122.195 2215.84 122.195C2209.85 122.195 2204.99 127.057 2204.99 133.054C2204.99 139.051 2209.85 143.913 2215.84 143.913Z" fill="#FFB8B8"/>
<path d="M2200.4 182.239C2191.85 163.278 2200.47 152.68 2204.57 149.004C2205.76 147.944 2207.29 147.358 2208.88 147.359H2224.17C2225.27 147.359 2226.35 147.64 2227.31 148.175C2228.27 148.709 2229.07 149.481 2229.65 150.415C2230.23 151.35 2230.56 152.416 2230.61 153.513C2230.66 154.611 2230.43 155.703 2229.93 156.685L2219.71 177.136L2200.48 182.424L2200.4 182.239Z" fill="#104911"/>
<path d="M2222.78 168.781C2222.5 168.656 2222.25 168.473 2222.05 168.243C2221.85 168.013 2221.7 167.742 2221.61 167.449L2218.55 157.208C2217.88 155.79 2217.81 154.167 2218.34 152.695C2218.87 151.223 2219.97 150.021 2221.38 149.354C2222.8 148.686 2224.42 148.607 2225.89 149.133C2227.37 149.66 2228.57 150.749 2229.24 152.162L2235.16 161.103C2235.33 161.358 2235.44 161.646 2235.49 161.949C2235.54 162.251 2235.52 162.56 2235.44 162.855C2235.36 163.149 2235.21 163.423 2235.01 163.656C2234.81 163.889 2234.57 164.077 2234.29 164.207L2224.55 168.767C2224.27 168.897 2223.97 168.965 2223.67 168.968C2223.36 168.97 2223.06 168.907 2222.78 168.781V168.781Z" fill="#104911"/>
<path d="M2212.77 284.571L2207.35 284.571L2204.77 263.665L2212.77 263.665L2212.77 284.571Z" fill="#FFB8B8"/>
<path d="M2203.48 283.022H2213.93V289.604H2196.89C2196.89 288.74 2197.06 287.884 2197.4 287.085C2197.73 286.287 2198.21 285.561 2198.82 284.95C2199.43 284.339 2200.16 283.854 2200.96 283.523C2201.76 283.193 2202.61 283.022 2203.48 283.022V283.022Z" fill="#2F2E41"/>
<path d="M2210.47 276.59L2201.79 275.589C2201.51 275.557 2201.24 275.469 2200.99 275.33C2200.75 275.192 2200.53 275.006 2200.36 274.783C2200.18 274.559 2200.06 274.304 2199.98 274.031C2199.91 273.758 2199.89 273.473 2199.93 273.193L2207.67 214.879C2207.7 214.676 2207.69 214.47 2207.64 214.27L2199.85 182.154C2199.78 181.857 2199.77 181.549 2199.83 181.249C2199.89 180.949 2200.01 180.666 2200.19 180.418C2201.39 178.754 2205.53 174.875 2217.83 174.802H2217.85C2218.26 174.802 2218.66 174.92 2219 175.141C2219.35 175.363 2219.62 175.679 2219.79 176.051L2221.43 179.662C2221.55 179.93 2221.74 180.16 2221.98 180.33C2224.24 181.929 2235.19 190.905 2228.76 210.61C2222.45 229.977 2214.35 267.578 2212.8 274.918C2212.7 275.395 2212.44 275.824 2212.06 276.131C2211.68 276.438 2211.21 276.605 2210.72 276.605C2210.64 276.605 2210.55 276.6 2210.47 276.59V276.59Z" fill="#2F2E41"/>
<path d="M2227.25 126.224C2224.77 127.934 2221.83 128.844 2218.81 128.832C2219.89 129.578 2221.11 130.081 2222.4 130.308C2218.39 131.168 2214.25 131.191 2210.24 130.376C2209.35 130.233 2208.48 129.937 2207.69 129.502C2207.3 129.281 2206.95 128.98 2206.68 128.618C2206.41 128.256 2206.22 127.841 2206.12 127.4C2205.85 125.875 2207.04 124.49 2208.28 123.556C2210.17 122.149 2212.34 121.179 2214.66 120.717C2216.97 120.256 2219.35 120.313 2221.64 120.886C2223.13 121.272 2224.62 121.924 2225.59 123.123C2226.56 124.321 2226.85 126.17 2225.93 127.404L2227.25 126.224Z" fill="#2F2E41"/>
<path d="M2220 118.67C2218.76 118.257 2217.49 117.824 2216.5 116.962C2215.52 116.1 2214.9 114.69 2215.34 113.46C2215.77 112.275 2217.06 111.582 2218.32 111.489C2219.57 111.396 2220.81 111.784 2222.01 112.169C2221.47 111.349 2220.91 109.759 2220.42 108.083C2219.3 104.258 2223.96 100.765 2227.94 101.053C2228.05 101.062 2228.17 101.074 2228.28 101.09C2232.28 101.675 2234.36 103.204 2237.16 106.131C2240.66 109.794 2242.5 114.735 2243.72 119.652C2244.95 124.568 2245.67 129.627 2247.39 134.392C2249.12 139.157 2252.03 143.737 2256.48 146.162C2258.91 147.446 2261.66 148.036 2264.4 147.866C2267.15 147.697 2269.8 146.775 2272.06 145.201C2272.37 147.293 2272.18 149.429 2271.51 151.434C2270.84 153.44 2269.7 155.259 2268.2 156.744C2266.69 158.229 2264.86 159.338 2262.84 159.981C2260.83 160.624 2258.69 160.784 2256.6 160.447C2250.86 159.519 2246.26 154.893 2243.8 149.619C2241.34 144.345 2240.67 138.442 2240.06 132.657C2239.44 126.871 2238.82 120.97 2236.44 115.66C2235.48 113.51 2234.06 111.323 2231.53 110.98C2230.87 110.872 2230.19 110.985 2229.6 111.302C2229.01 111.618 2228.54 112.12 2228.26 112.73C2227.15 115.424 2230.96 117.706 2229.98 120.273C2229.77 120.77 2229.42 121.196 2228.98 121.501C2228.53 121.805 2228.01 121.976 2227.47 121.992C2225.62 122.113 2224.11 121.058 2222.69 120.039C2219.77 117.956 2220 118.67 2220 118.67Z" fill="#2F2E41"/>
<path d="M2283.56 290H2181.88C2181.76 290 2181.65 289.953 2181.57 289.87C2181.49 289.788 2181.44 289.675 2181.44 289.558C2181.44 289.441 2181.49 289.328 2181.57 289.245C2181.65 289.162 2181.76 289.116 2181.88 289.116H2283.56C2283.68 289.116 2283.79 289.162 2283.87 289.245C2283.95 289.328 2284 289.441 2284 289.558C2284 289.675 2283.95 289.788 2283.87 289.87C2283.79 289.953 2283.68 290 2283.56 290Z" fill="#3F3D56"/>
</g>
<g clip-path="url(#clip1)">
<path d="M587.927 63.6545C587.835 74.1951 587.063 84.7187 585.616 95.16C585.566 95.5266 585.51 95.8933 585.46 96.2599L486.756 95.7084C486.466 95.3442 486.181 94.9757 485.905 94.6027C484.983 93.3685 484.119 92.0992 483.327 90.7862C479.516 84.4603 477.771 77.054 479.519 71.944L479.551 71.8646C479.928 70.7457 480.523 69.7123 481.301 68.8238C485.287 64.3365 493.346 65.0845 500.66 68.7065C494.1 61.5253 488.876 52.4637 488.48 44.3752C488.09 36.4857 492.215 30.8497 496.69 26.06C496.836 25.9017 496.983 25.7477 497.13 25.5938C497.201 25.5147 497.277 25.4399 497.348 25.3607C500.838 21.7107 504.908 18.1125 510.798 18.5477C517.259 19.026 524.421 24.4377 529.443 30.7438C534.466 37.0455 537.803 44.2042 541.186 51.1909C544.573 58.1731 548.237 65.3338 553.672 71.3018C546.311 61.9895 540.375 51.3942 538.183 41.0895C535.99 30.7848 537.92 20.8878 544.481 16.0346C546.473 14.6067 548.778 13.6766 551.202 13.3222C551.486 13.2752 551.773 13.237 552.065 13.2033C558.139 12.5122 565.39 14.6129 571.56 19.6344C578.355 25.1635 583.066 33.3601 585.41 41.1412C587.753 48.9222 588.003 56.4131 587.927 63.6545Z" fill="#F2F2F2"/>
<path d="M523.35 95.9125L521.463 95.902C520.864 95.5273 520.261 95.157 519.656 94.791C519.282 94.5546 518.903 94.327 518.524 94.095C512.264 90.2711 505.964 86.6032 499.625 83.0913C493.292 79.5764 486.927 76.2235 480.53 73.0326C480.361 72.9587 480.223 72.8278 480.139 72.6626C480.056 72.4974 480.034 72.3082 480.076 72.1281C480.083 72.1045 480.093 72.0822 480.107 72.062C480.196 71.8945 480.396 71.8248 480.687 71.9679C481.471 72.3614 482.261 72.7548 483.045 73.1571C489.459 76.4027 495.846 79.8103 502.205 83.3798C508.56 86.9478 514.878 90.6733 521.161 94.5563C521.293 94.6366 521.425 94.7214 521.557 94.8017C522.156 95.172 522.751 95.5423 523.35 95.9125Z" fill="white"/>
<path d="M547.686 96.0486L546.519 96.0421C546.255 95.6737 545.997 95.3052 545.733 94.9368C539.549 86.2633 533.365 77.5898 527.183 68.9163C517.06 54.7165 506.939 40.5167 496.821 26.3169C496.761 26.2405 496.717 26.1531 496.69 26.0597C496.603 25.7453 496.834 25.561 497.13 25.5936C497.255 25.6114 497.374 25.6556 497.481 25.7233C497.587 25.791 497.678 25.8806 497.747 25.9861C503.423 33.9493 509.097 41.9096 514.77 49.867C524.842 63.9958 534.911 78.1231 544.979 92.2489C545.62 93.1456 546.26 94.0467 546.901 94.9433C547.164 95.3118 547.427 95.6802 547.686 96.0486Z" fill="white"/>
<path d="M573.687 89.2705C573.627 91.2376 573.497 93.1734 573.327 95.0912C573.294 95.458 573.261 95.8247 573.228 96.1915L572.004 96.1846C572.041 95.8179 572.078 95.4512 572.111 95.0844C572.37 92.3138 572.554 89.5118 572.579 86.6338C572.611 78.6545 571.834 70.6925 570.258 62.8704C568.583 54.448 566.178 46.1875 563.071 38.1823C559.809 29.7393 555.876 21.5711 551.311 13.756C551.225 13.6286 551.187 13.475 551.203 13.3221C551.253 12.9731 551.718 12.8696 552.065 13.2032C552.134 13.2686 552.193 13.3433 552.241 13.4252C552.806 14.3966 553.36 15.3709 553.905 16.348C558.302 24.2065 562.066 32.4031 565.16 40.8599C568.108 48.8913 570.35 57.1643 571.861 65.5851C573.276 73.3972 573.888 81.3337 573.687 89.2705Z" fill="white"/>
<path d="M657.191 95.4419H388.855C387.833 95.4428 386.853 95.8493 386.13 96.5721C385.407 97.2949 385.001 98.2749 385 99.2971V281.145C385.001 282.167 385.407 283.147 386.13 283.87C386.853 284.593 387.833 284.999 388.855 285H657.191C657.748 285 658.299 284.879 658.805 284.646C659.311 284.412 659.76 284.072 660.122 283.647C660.152 283.614 660.18 283.579 660.206 283.541C660.436 283.26 660.622 282.945 660.758 282.608C660.952 282.145 661.051 281.647 661.05 281.145V99.2971C661.049 98.2742 660.642 97.2936 659.918 96.5707C659.194 95.8479 658.213 95.4418 657.191 95.4419V95.4419ZM659.949 281.145C659.95 281.683 659.791 282.209 659.494 282.657C659.23 283.052 658.871 283.374 658.451 283.594C658.061 283.796 657.629 283.9 657.191 283.899H388.855C388.125 283.899 387.425 283.608 386.908 283.092C386.392 282.575 386.102 281.875 386.101 281.145V99.2971C386.102 98.5669 386.392 97.8668 386.908 97.3505C387.425 96.8341 388.125 96.5437 388.855 96.5428H657.191C657.921 96.5427 658.622 96.8327 659.14 97.3491C659.657 97.8655 659.948 98.5662 659.949 99.2971V281.145Z" fill="#3F3D56"/>
<path d="M660.497 110.893H385.549V111.995H660.497V110.893Z" fill="#3F3D56"/>
<path d="M394.916 107.013C396.742 107.013 398.222 105.533 398.222 103.707C398.222 101.881 396.742 100.401 394.916 100.401C393.09 100.401 391.61 101.881 391.61 103.707C391.61 105.533 393.09 107.013 394.916 107.013Z" fill="#3F3D56"/>
<path d="M404.421 107.013C406.247 107.013 407.727 105.533 407.727 103.707C407.727 101.881 406.247 100.401 404.421 100.401C402.595 100.401 401.115 101.881 401.115 103.707C401.115 105.533 402.595 107.013 404.421 107.013Z" fill="#3F3D56"/>
<path d="M413.926 107.013C415.751 107.013 417.232 105.533 417.232 103.707C417.232 101.881 415.751 100.401 413.926 100.401C412.1 100.401 410.62 101.881 410.62 103.707C410.62 105.533 412.1 107.013 413.926 107.013Z" fill="#3F3D56"/>
<path d="M592.029 136.404H454.104C452.58 136.404 451.118 135.798 450.04 134.721C448.962 133.643 448.357 132.181 448.357 130.657C448.357 129.132 448.962 127.67 450.04 126.593C451.118 125.515 452.58 124.909 454.104 124.909H592.029C593.554 124.909 595.015 125.515 596.093 126.593C597.171 127.67 597.776 129.132 597.776 130.657C597.776 132.181 597.171 133.643 596.093 134.721C595.015 135.798 593.554 136.404 592.029 136.404V136.404ZM454.104 125.793C452.814 125.793 451.577 126.306 450.665 127.218C449.753 128.13 449.241 129.367 449.241 130.657C449.241 131.946 449.753 133.183 450.665 134.095C451.577 135.007 452.814 135.52 454.104 135.52H592.029C593.319 135.52 594.556 135.007 595.468 134.095C596.38 133.183 596.892 131.946 596.892 130.657C596.892 129.367 596.38 128.13 595.468 127.218C594.556 126.306 593.319 125.793 592.029 125.793H454.104Z" fill="#3F3D56"/>
<path d="M465.556 203.878H412.508C410.515 203.875 408.605 203.083 407.196 201.674C405.787 200.265 404.995 198.354 404.992 196.362V171.604C404.995 169.611 405.787 167.701 407.196 166.292C408.605 164.883 410.515 164.09 412.508 164.088H465.556C467.548 164.09 469.459 164.883 470.867 166.292C472.276 167.701 473.069 169.611 473.071 171.604V196.362C473.069 198.354 472.276 200.265 470.867 201.674C469.459 203.083 467.548 203.875 465.556 203.878V203.878Z" fill="#F9A620"/>
<path d="M549.549 203.878H496.501C494.508 203.875 492.598 203.083 491.189 201.674C489.78 200.265 488.988 198.354 488.985 196.362V171.604C488.988 169.611 489.78 167.701 491.189 166.292C492.598 164.883 494.508 164.09 496.501 164.088H549.549C551.541 164.09 553.452 164.883 554.86 166.292C556.269 167.701 557.062 169.611 557.064 171.604V196.362C557.062 198.354 556.269 200.265 554.86 201.674C553.452 203.083 551.541 203.875 549.549 203.878V203.878Z" fill="#F9A620"/>
<path d="M633.542 203.878H580.494C578.502 203.875 576.592 203.083 575.183 201.674C573.774 200.265 572.981 198.354 572.979 196.362V171.604C572.981 169.611 573.774 167.701 575.183 166.292C576.592 164.883 578.502 164.09 580.494 164.088H633.542C635.535 164.09 637.445 164.883 638.854 166.292C640.263 167.701 641.055 169.611 641.058 171.604V196.362C641.055 198.354 640.263 200.265 638.854 201.674C637.445 203.083 635.535 203.875 633.542 203.878V203.878Z" fill="#F9A620"/>
<path d="M465.556 256.046H412.508C410.515 256.044 408.605 255.251 407.196 253.842C405.787 252.433 404.995 250.523 404.992 248.53V223.772C404.995 221.78 405.787 219.869 407.196 218.46C408.605 217.051 410.515 216.259 412.508 216.256H465.556C467.548 216.259 469.459 217.051 470.867 218.46C472.276 219.869 473.069 221.78 473.071 223.772V248.53C473.069 250.523 472.276 252.433 470.867 253.842C469.459 255.251 467.548 256.044 465.556 256.046V256.046Z" fill="#F9A620"/>
<path d="M549.549 256.046H496.501C494.508 256.044 492.598 255.251 491.189 253.842C489.78 252.433 488.988 250.523 488.985 248.53V223.772C488.988 221.78 489.78 219.869 491.189 218.46C492.598 217.051 494.508 216.259 496.501 216.256H549.549C551.541 216.259 553.452 217.051 554.86 218.46C556.269 219.869 557.062 221.78 557.064 223.772V248.53C557.062 250.523 556.269 252.433 554.86 253.842C553.452 255.251 551.541 256.044 549.549 256.046V256.046Z" fill="#F9A620"/>
<path d="M633.542 256.046H580.494C578.502 256.044 576.592 255.251 575.183 253.842C573.774 252.433 572.981 250.523 572.979 248.53V223.772C572.981 221.78 573.774 219.869 575.183 218.46C576.592 217.051 578.502 216.259 580.494 216.256H633.542C635.535 216.259 637.445 217.051 638.854 218.46C640.263 219.869 641.055 221.78 641.058 223.772V248.53C641.055 250.523 640.263 252.433 638.854 253.842C637.445 255.251 635.535 256.044 633.542 256.046V256.046Z" fill="#B77100"/>
<path d="M693.173 137.561C701.23 137.561 707.761 131.029 707.761 122.971C707.761 114.914 701.23 108.382 693.173 108.382C685.116 108.382 678.584 114.914 678.584 122.971C678.584 131.029 685.116 137.561 693.173 137.561Z" fill="#2F2E41"/>
<path d="M656.626 198.868C656.303 198.254 656.118 197.576 656.085 196.882C656.052 196.189 656.172 195.496 656.436 194.854C656.699 194.211 657.1 193.635 657.611 193.164C658.121 192.694 658.729 192.341 659.39 192.13L677.876 153.022L686.332 158.952L665.502 195.53C665.782 196.665 665.635 197.863 665.091 198.897C664.546 199.932 663.641 200.73 662.547 201.142C661.453 201.553 660.246 201.549 659.155 201.13C658.063 200.711 657.164 199.906 656.626 198.868V198.868Z" fill="#FFB8B8"/>
<path d="M672.466 158.214C672.378 157.921 672.355 157.613 672.397 157.309C672.439 157.006 672.546 156.716 672.71 156.458L678.458 147.447C679.097 146.018 680.276 144.9 681.738 144.339C683.2 143.778 684.824 143.82 686.255 144.454C687.686 145.089 688.807 146.266 689.372 147.726C689.937 149.186 689.9 150.811 689.269 152.244L686.374 162.568C686.291 162.863 686.146 163.136 685.948 163.37C685.751 163.603 685.505 163.791 685.228 163.921C684.951 164.051 684.649 164.12 684.343 164.123C684.037 164.125 683.734 164.062 683.454 163.937L673.637 159.547C673.357 159.422 673.108 159.238 672.906 159.008C672.704 158.778 672.554 158.508 672.466 158.214V158.214Z" fill="#6C63FF"/>
<path d="M718.979 202.745C718.302 202.588 717.669 202.284 717.122 201.856C716.576 201.428 716.13 200.884 715.817 200.265C715.503 199.646 715.329 198.965 715.306 198.271C715.284 197.577 715.414 196.887 715.688 196.248L698.181 156.692L708.196 154.169L722.255 193.845C723.297 194.376 724.108 195.27 724.534 196.358C724.961 197.447 724.973 198.654 724.57 199.751C724.166 200.848 723.373 201.758 722.343 202.31C721.313 202.862 720.116 203.017 718.979 202.745V202.745Z" fill="#FFB8B8"/>
<path d="M723.751 274.444L718.658 276.299L709.083 257.537L716.599 254.8L723.751 274.444Z" fill="#FFB8B8"/>
<path d="M714.491 276.168L724.312 272.592L726.564 278.776L710.559 284.604C710.263 283.792 710.13 282.93 710.168 282.066C710.205 281.203 710.413 280.355 710.778 279.572C711.143 278.788 711.659 278.085 712.296 277.501C712.933 276.917 713.679 276.464 714.491 276.168Z" fill="#2F2E41"/>
<path d="M709.848 262.576L690.447 228.622C690.26 228.293 690.163 227.921 690.167 227.542C690.171 227.164 690.276 226.794 690.47 226.469L699.206 211.908C699.414 211.562 699.714 211.283 700.074 211.101C700.434 210.92 700.837 210.845 701.238 210.884C701.639 210.922 702.021 211.074 702.339 211.321C702.657 211.569 702.898 211.901 703.035 212.28L719.552 258.024C719.734 258.522 719.723 259.07 719.521 259.56C719.319 260.05 718.941 260.447 718.461 260.672L712.609 263.444C712.326 263.578 712.017 263.647 711.705 263.647C711.329 263.648 710.959 263.549 710.633 263.361C710.307 263.173 710.036 262.902 709.848 262.576V262.576Z" fill="#2F2E41"/>
<path d="M691.845 138.913C697.841 138.913 702.703 134.051 702.703 128.054C702.703 122.057 697.841 117.195 691.845 117.195C685.848 117.195 680.987 122.057 680.987 128.054C680.987 134.051 685.848 138.913 691.845 138.913Z" fill="#FFB8B8"/>
<path d="M676.401 177.239C667.851 158.278 676.471 147.68 680.574 144.004C681.756 142.944 683.288 142.358 684.875 142.359H700.171C701.269 142.359 702.349 142.64 703.308 143.175C704.268 143.709 705.074 144.481 705.652 145.415C706.229 146.35 706.558 147.416 706.608 148.513C706.657 149.611 706.425 150.703 705.934 151.685L695.709 172.136L676.484 177.424L676.401 177.239Z" fill="#104911"/>
<path d="M698.777 163.781C698.498 163.656 698.249 163.473 698.047 163.243C697.845 163.013 697.696 162.742 697.608 162.449L694.547 152.208C693.884 150.79 693.81 149.167 694.341 147.695C694.873 146.223 695.966 145.021 697.381 144.354C698.797 143.686 700.419 143.607 701.893 144.133C703.367 144.66 704.572 145.749 705.244 147.162L711.164 156.103C711.333 156.358 711.445 156.646 711.492 156.949C711.539 157.251 711.521 157.56 711.438 157.855C711.355 158.149 711.21 158.423 711.012 158.656C710.814 158.889 710.568 159.077 710.291 159.207L700.551 163.767C700.274 163.897 699.972 163.965 699.666 163.968C699.36 163.97 699.057 163.907 698.777 163.781V163.781Z" fill="#104911"/>
<path d="M688.766 279.571L683.347 279.571L680.769 258.665L688.767 258.665L688.766 279.571Z" fill="#FFB8B8"/>
<path d="M679.475 278.022H689.927V284.604H672.894C672.894 283.74 673.064 282.884 673.395 282.085C673.726 281.287 674.21 280.561 674.822 279.95C675.433 279.339 676.158 278.854 676.957 278.523C677.755 278.193 678.611 278.022 679.475 278.022V278.022Z" fill="#2F2E41"/>
<path d="M686.47 271.59L677.793 270.589C677.512 270.557 677.24 270.469 676.994 270.33C676.747 270.192 676.531 270.006 676.357 269.783C676.183 269.559 676.056 269.304 675.982 269.031C675.908 268.758 675.889 268.473 675.926 268.193L683.67 209.879C683.697 209.676 683.686 209.47 683.638 209.27L675.854 177.154C675.781 176.857 675.772 176.549 675.83 176.249C675.887 175.949 676.009 175.666 676.187 175.418C677.394 173.754 681.53 169.875 693.832 169.802H693.846C694.255 169.802 694.656 169.92 695.001 170.141C695.346 170.363 695.619 170.679 695.789 171.051L697.43 174.662C697.553 174.93 697.744 175.16 697.984 175.33C700.243 176.929 711.185 185.905 704.76 205.61C698.445 224.977 690.354 262.578 688.797 269.918C688.697 270.395 688.436 270.824 688.058 271.131C687.68 271.438 687.207 271.605 686.72 271.605C686.636 271.605 686.553 271.6 686.47 271.59V271.59Z" fill="#2F2E41"/>
<path d="M703.253 121.224C700.772 122.934 697.827 123.844 694.814 123.832C695.889 124.578 697.113 125.081 698.401 125.308C694.394 126.168 690.254 126.191 686.238 125.376C685.345 125.233 684.484 124.937 683.692 124.502C683.297 124.281 682.953 123.98 682.682 123.618C682.411 123.256 682.22 122.841 682.12 122.4C681.853 120.875 683.041 119.49 684.275 118.556C686.166 117.149 688.345 116.179 690.656 115.717C692.966 115.256 695.351 115.313 697.637 115.886C699.129 116.272 700.624 116.924 701.594 118.123C702.563 119.321 702.851 121.17 701.927 122.404L703.253 121.224Z" fill="#2F2E41"/>
<path d="M696.004 113.67C694.764 113.257 693.487 112.824 692.505 111.962C691.522 111.1 690.898 109.69 691.34 108.46C691.765 107.275 693.062 106.582 694.318 106.489C695.574 106.396 696.81 106.784 698.01 107.169C697.467 106.349 696.907 104.759 696.416 103.083C695.297 99.2581 699.962 95.765 703.937 96.0533C704.054 96.0618 704.167 96.074 704.277 96.0898C708.284 96.6747 710.363 98.2036 713.163 101.131C716.664 104.794 718.495 109.735 719.722 114.652C720.948 119.568 721.668 124.627 723.393 129.392C725.118 134.157 728.027 138.737 732.476 141.162C734.912 142.446 737.655 143.036 740.404 142.866C743.153 142.697 745.803 141.775 748.063 140.201C748.371 142.293 748.181 144.429 747.51 146.434C746.838 148.44 745.704 150.259 744.198 151.744C742.692 153.229 740.857 154.338 738.843 154.981C736.828 155.624 734.691 155.784 732.603 155.447C726.86 154.519 722.259 149.893 719.801 144.619C717.344 139.345 716.673 133.442 716.057 127.657C715.44 121.871 714.816 115.97 712.438 110.66C711.476 108.51 710.059 106.323 707.528 105.98C706.867 105.872 706.189 105.985 705.599 106.302C705.008 106.618 704.539 107.12 704.263 107.73C703.149 110.424 706.957 112.706 705.982 115.273C705.77 115.77 705.421 116.196 704.975 116.501C704.529 116.805 704.005 116.976 703.465 116.992C701.625 117.113 700.113 116.058 698.688 115.039C695.774 112.956 696.004 113.67 696.004 113.67Z" fill="#2F2E41"/>
<path d="M759.558 285H657.882C657.765 285 657.652 284.953 657.569 284.87C657.486 284.788 657.44 284.675 657.44 284.558C657.44 284.441 657.486 284.328 657.569 284.245C657.652 284.162 657.765 284.116 657.882 284.116H759.558C759.675 284.116 759.788 284.162 759.87 284.245C759.953 284.328 760 284.441 760 284.558C760 284.675 759.953 284.788 759.87 284.87C759.788 284.953 759.675 285 759.558 285Z" fill="#3F3D56"/>
</g>
<defs>
<clipPath id="clip0">
<rect width="375" height="272" fill="white" transform="translate(1909 18)"/>
</clipPath>
<clipPath id="clip1">
<rect width="375" height="272" fill="white" transform="translate(385 13)"/>
</clipPath>
</defs>
</svg>
